<svg width="36" height="22" viewBox="0 0 36 22" fill="none" xmlns="http://www.w3.org/2000/svg" id="logo">
<mask id="mask0" mask-type="alpha" maskUnits="userSpaceOnUse" x="0" y="0" width="36" height="22">
<rect width="36" height="22" rx="2" fill="#C4C4C4"/>
</mask>
<g mask="url(#mask0)">
<rect x="-2" y="-3" width="43" height="29" fill="#F7F7F7"/>
<path d="M9 2H26.9553V11.7169L26.0666 13.109L26.9553 14.348V20H9V10.8399L9.55546 10.1995L9 9.587V2Z" fill="#016FD0"/>
<path d="M12.4858 14.5438V11.7178H15.4706L15.7908 12.1363L16.1217 11.7178H26.9556V14.3489C26.9556 14.3489 26.6723 14.5409 26.3446 14.5438H20.3456L19.9846 14.0983V14.5438H18.8014V13.7833C18.8014 13.7833 18.6398 13.8895 18.2904 13.8895H17.8877V14.5438H16.0963L15.7766 14.1163L15.4519 14.5438H12.4858Z" fill="white"/>
<path d="M9 9.58675L9.67308 8.01367H10.8371L11.2191 8.89485V8.01367H12.666L12.8934 8.65056L13.1139 8.01367H19.6093V8.33386C19.6093 8.33386 19.9508 8.01367 20.5119 8.01367L22.6195 8.02106L22.9949 8.8907V8.01367H24.2058L24.539 8.51321V8.01367H25.7611V10.8397H24.539L24.2197 10.3385V10.8397H22.4406L22.2616 10.3942H21.7834L21.6074 10.8397H20.4009C19.918 10.8397 19.6093 10.526 19.6093 10.526V10.8397H17.7902L17.4291 10.3942V10.8397H10.6646L10.4859 10.3942H10.0091L9.83158 10.8397H9V9.58675Z" fill="white"/>
<path d="M9.91125 8.3623L9.00342 10.4783H9.59446L9.76197 10.0546H10.7358L10.9024 10.4783H11.5065L10.5995 8.3623H9.91125ZM10.2471 8.85476L10.544 9.59519H9.94944L10.2471 8.85476V8.85476Z" fill="#016FD0"/>
<path d="M11.5688 10.4773V8.36133L12.4088 8.36446L12.8973 9.72872L13.3741 8.36133H14.2073V10.4773H13.6796V8.91817L13.1202 10.4773H12.6575L12.0965 8.91817V10.4773H11.5688Z" fill="#016FD0"/>
<path d="M14.5688 10.4773V8.36133H16.2908V8.83465H15.1021V9.19659H16.263V9.64207H15.1021V10.0179H16.2908V10.4773H14.5688Z" fill="#016FD0"/>
<path d="M16.5957 8.3623V10.4783H17.1234V9.72657H17.3456L17.9783 10.4783H18.6231L17.9288 9.69873C18.2138 9.67463 18.5077 9.42944 18.5077 9.04879C18.5077 8.60351 18.1591 8.3623 17.77 8.3623H16.5957V8.3623ZM17.1234 8.83562H17.7266C17.8713 8.83562 17.9766 8.94909 17.9766 9.05836C17.9766 9.19894 17.8402 9.2811 17.7344 9.2811H17.1234V8.83562V8.83562Z" fill="#016FD0"/>
<path d="M19.2619 10.4773H18.7231V8.36133H19.2619V10.4773Z" fill="#016FD0"/>
<path d="M20.5397 10.4773H20.4234C19.8607 10.4773 19.519 10.0329 19.519 9.42803C19.519 8.80822 19.8569 8.36133 20.5675 8.36133H21.1507V8.86249H20.5462C20.2577 8.86249 20.0537 9.08817 20.0537 9.43325C20.0537 9.84304 20.287 10.0152 20.623 10.0152H20.7619L20.5397 10.4773Z" fill="#016FD0"/>
<path d="M21.6881 8.3623L20.7803 10.4783H21.3713L21.5388 10.0546H22.5126L22.6793 10.4783H23.2833L22.3764 8.3623H21.6881ZM22.024 8.85476L22.3208 9.59519H21.7263L22.024 8.85476Z" fill="#016FD0"/>
<path d="M23.3447 10.4773V8.36133H24.0156L24.8722 9.6908V8.36133H25.3999V10.4773H24.7507L23.8724 9.11307V10.4773H23.3447Z" fill="#016FD0"/>
<path d="M12.8467 14.1814V12.0654H14.5686V12.5387H13.3799V12.9007H14.5408V13.3462H13.3799V13.722H14.5686V14.1814H12.8467Z" fill="#016FD0"/>
<path d="M21.2842 14.1814V12.0654H23.0061V12.5387H21.8174V12.9007H22.9728V13.3462H21.8174V13.722H23.0061V14.1814H21.2842Z" fill="#016FD0"/>
<path d="M14.6352 14.1814L15.4736 13.1365L14.6152 12.0654H15.2801L15.7913 12.7276L16.3042 12.0654H16.943L16.0959 13.1234L16.9358 14.1814H16.2711L15.7748 13.5298L15.2905 14.1814H14.6352Z" fill="#016FD0"/>
<path d="M16.9985 12.0654V14.1814H17.5401V13.5132H18.0956C18.5656 13.5132 18.9218 13.2633 18.9218 12.7771C18.9218 12.3745 18.6424 12.0654 18.1641 12.0654H16.9985V12.0654ZM17.5401 12.544H18.1251C18.2769 12.544 18.3855 12.6373 18.3855 12.7876C18.3855 12.9288 18.2775 13.0312 18.1233 13.0312H17.5401V12.544Z" fill="#016FD0"/>
<path d="M19.1514 12.0654V14.1814H19.6791V13.4297H19.9012L20.5339 14.1814H21.1788L20.4845 13.4019C20.7694 13.3777 21.0634 13.1326 21.0634 12.7519C21.0634 12.3066 20.7147 12.0654 20.3256 12.0654H19.1514V12.0654ZM19.6791 12.5387H20.2823C20.427 12.5387 20.5322 12.6522 20.5322 12.7615C20.5322 12.9021 20.3958 12.9842 20.2901 12.9842H19.6791V12.5387V12.5387Z" fill="#016FD0"/>
<path d="M23.2506 14.1814V13.722H24.3067C24.4629 13.722 24.5306 13.6374 24.5306 13.5445C24.5306 13.4556 24.4631 13.3657 24.3067 13.3657H23.8294C23.4146 13.3657 23.1836 13.1123 23.1836 12.7319C23.1836 12.3926 23.3952 12.0654 24.0116 12.0654H25.0392L24.817 12.5415H23.9283C23.7584 12.5415 23.7061 12.6309 23.7061 12.7162C23.7061 12.804 23.7707 12.9007 23.9005 12.9007H24.4004C24.8628 12.9007 25.0635 13.1637 25.0635 13.508C25.0635 13.8782 24.8399 14.1814 24.3752 14.1814H23.2506Z" fill="#016FD0"/>
<path d="M25.1871 14.1814V13.722H26.2432C26.3995 13.722 26.4671 13.6374 26.4671 13.5445C26.4671 13.4556 26.3997 13.3657 26.2432 13.3657H25.766C25.3511 13.3657 25.1201 13.1123 25.1201 12.7319C25.1201 12.3926 25.3317 12.0654 25.9481 12.0654H26.9757L26.7535 12.5415H25.8648C25.6949 12.5415 25.6426 12.6309 25.6426 12.7162C25.6426 12.804 25.7072 12.9007 25.837 12.9007H26.3369C26.7994 12.9007 27 13.1637 27 13.508C27 13.8782 26.7764 14.1814 26.3118 14.1814H25.1871Z" fill="#016FD0"/>
</g>
</svg>
