<svg id="audio-wave" viewBox="0 0 17 17" fill="none" xmlns="http://www.w3.org/2000/svg">
  <path fill="var(--wave-color, #1d2329)" fill-rule="evenodd" clip-rule="evenodd" d="M6 15.1465H5V2.14648H6V15.1465ZM4 5.14648H3V12.1465H4V5.14648ZM2 7.14648H1V10.1465H2V7.14648ZM12 2.14648H11V15.1465H12V2.14648ZM10 5.14648H9V12.1465H10V5.14648ZM8 7.14648H7V10.1465H8V7.14648ZM14 5.14648H13V12.1465H14V5.14648ZM16 7.14648H15V10.1465H16V7.14648Z" />
  <path stroke="white" d="M2.5 10.6465H0.5V7.14648V6.64648H2.5M2.5 10.6465V12.6465H4.5M2.5 10.6465V6.64648M4.5 12.6465V15.6465H6.5V10.6465M4.5 12.6465V4.64648M6.5 10.6465H8.5M6.5 10.6465V6.64648M8.5 10.6465V12.6465H10.5M8.5 10.6465V6.64648M10.5 12.6465V15.6465H12.5V12.6465M10.5 12.6465V4.64648M12.5 12.6465H14.5V10.6465M12.5 12.6465V4.64648M14.5 10.6465H16.5V6.64648H14.5M14.5 10.6465V6.64648M14.5 6.64648V4.64648H12.5M12.5 4.64648V1.64648H10.5V4.64648M10.5 4.64648H8.5V6.64648M8.5 6.64648H6.5M6.5 6.64648V1.64648H4.5V4.64648M4.5 4.64648H2.5V6.64648" />
</svg>
