<svg xmlns="http://www.w3.org/2000/svg" xmlns:xlink="http://www.w3.org/1999/xlink">
        <defs>
        <symbol width="32" height="36" viewBox="0 0 32 36" fill-rule="evenodd" id="ContactUs">
            <path fill-rule="evenodd" clip-rule="evenodd" d="M15.6538 18.5769C15.3076 18.6923 15.1345 19.0961 15.423 19.3846L17.9614 21.9808C18.2499 22.2692 18.2499 22.6731 17.9614 22.9615L16.9807 23.9423C16.6922 24.2308 16.2884 24.2308 15.9999 23.9423L9.82683 17.7115C9.53837 17.4231 9.53837 17.0192 9.82683 16.7308L15.9999 10.5577C16.2884 10.2692 16.6922 10.2692 16.9807 10.5577L17.9614 11.5384C18.2499 11.8269 18.2499 12.2308 17.9614 12.5192L15.3653 15.1154C15.0768 15.4038 15.5961 15.9231 15.5961 15.9231C21.4807 16.0961 26.0384 19.9615 27.423 25.2115C28.923 23.1346 29.8461 20.6538 29.8461 18C29.7884 10.9038 23.6153 5.30768 15.9999 5.30768C8.38452 5.30768 2.26914 10.9615 2.26914 17.8846C2.26914 20.0769 2.90375 22.1538 3.94221 24C4.11529 24.2885 4.17298 24.6346 4.0576 24.9808L2.26914 29.8846C2.09606 30.3461 2.5576 30.75 3.01914 30.6346L8.03837 28.7308C8.32683 28.6154 8.67298 28.6731 9.01914 28.8461C11.0961 30 13.5768 30.6923 16.2307 30.6923C19.6345 30.6346 22.8076 29.4808 25.173 27.5192C24.5384 22.6154 20.5576 18.8077 15.6538 18.5769V18.5769Z" fill="#3E3E3C"/>
        </symbol>
        
        <symbol width="32" height="36" viewBox="0 0 32 36" fill-rule="evenodd" id="Accessory">
            <path fill-rule="evenodd" clip-rule="evenodd" d="M31.3233 21.2C31.3233 12.3385 24.6156 5.07693 16.3079 5.07693C8.00019 5.07693 1.23096 12.3385 1.23096 21.2C1.23096 23.2923 1.60019 25.3846 2.33865 27.3539C3.20019 29.7539 5.35403 31.4769 7.93865 31.5385C8.67711 31.5385 9.2925 30.9231 9.2925 30.1846V22.4923C9.2925 21.7539 8.67711 21.1385 7.93865 21.1385C6.5848 21.1385 5.2925 21.6308 4.30788 22.3692C4.24634 21.9385 4.24634 21.5692 4.24634 21.1385C4.24634 13.8769 9.66173 8.03078 16.3079 8.03078C22.954 8.03078 28.3694 13.9385 28.3694 21.1385C28.3694 21.5692 28.3694 22 28.3079 22.3692C27.3233 21.5692 26.0925 21.0769 24.6771 21.0769C23.9386 21.0769 23.3233 21.6923 23.3233 22.4308V30.0616C23.3233 30.8 23.9386 31.4154 24.6771 31.4154C26.154 31.4154 27.6925 30.8616 28.6771 29.7539C29.7233 28.6462 30.2156 27.4154 30.6463 25.9385C31.0771 24.4616 31.3233 22.8616 31.3233 21.2Z" fill="#3E3E3C"/>
        
        </symbol>
        >
        <symbol width="32" height="36" viewBox="0 0 32 36" fill-rule="evenodd" id="Info">
            <path d="M3.09387 23.5104H0.693453C0.320055 23.5104 0 23.8304 0 24.2038V32.792C0 33.1654 0.320055 33.4854 0.693453 33.4854H1.86699C2.93384 33.4854 3.78732 32.6319 3.78732 31.5651V24.2572C3.84066 23.8304 3.46726 23.5104 3.09387 23.5104Z" fill="#3E3E3C"/>
            <path d="M31.952 28.2045C31.5786 27.351 30.8852 26.4442 29.8717 26.3375C29.3383 26.2842 28.8048 26.4976 28.3247 26.6576C26.4044 27.351 24.4841 27.9912 22.5638 28.6846C21.3369 29.1113 20.0567 29.5381 18.7231 29.6448C17.8163 29.6981 16.9094 29.6448 16.0026 29.6448C15.5225 29.6448 15.0958 29.2714 15.0958 28.7379C15.0958 28.2045 15.4692 27.8311 16.0026 27.8311H20.8568C21.7636 27.8311 22.4571 27.0843 22.4571 26.2308C22.4571 25.3774 21.7103 24.6306 20.8568 24.6306H17.1228C16.9628 24.6306 15.9493 24.5772 15.3092 24.3105C14.6157 23.9905 13.7089 23.9371 13.7089 23.9905C13.7089 23.9905 13.7089 23.9905 13.6556 23.9905H7.14777C6.34763 23.9905 5.70752 24.6306 5.70752 25.4307V31.4584C5.70752 32.1519 6.24094 32.7386 6.9344 32.8453C6.98774 32.8453 7.04108 32.8453 7.09442 32.8453C8.3213 32.8453 9.54818 33.112 10.7751 33.3254C12.0019 33.5921 13.1755 33.7521 14.4557 33.7521C16.056 33.8055 17.7096 33.5388 19.2565 33.1654C20.8035 32.7386 22.297 32.1519 23.7906 31.6718C26.3511 30.8183 28.9649 29.9115 31.5253 29.058C31.8454 28.898 32.1121 28.6313 31.952 28.2045Z" fill="#3E3E3C"/>
            <path fill-rule="evenodd" clip-rule="evenodd" d="M20.27 12.5752V20.5765C20.27 20.8433 20.5367 20.9499 20.7501 20.8966C22.297 19.9898 27.0979 17.3226 27.0979 17.3226C27.738 16.9492 28.1114 16.3091 28.1114 15.5623V8.3611C28.1114 8.09439 27.8447 7.9877 27.6313 8.04105L20.5901 11.9884C20.43 12.1484 20.27 12.3618 20.27 12.5752" fill="#3E3E3C"/>
            <path fill-rule="evenodd" clip-rule="evenodd" d="M19.6302 10.3881L26.6714 6.44076C26.8847 6.33408 26.8847 6.01402 26.6714 5.90734C25.1244 5.00052 20.2703 2.28005 20.2703 2.28005C19.6302 1.90665 18.8834 1.90665 18.2433 2.28005C18.2433 2.28005 13.4424 5.00052 11.8422 5.90734C11.6288 6.01402 11.6288 6.33408 11.8422 6.44076L18.9901 10.3881C19.1501 10.4948 19.4168 10.4948 19.6302 10.3881" fill="#3E3E3C"/>
            <path fill-rule="evenodd" clip-rule="evenodd" d="M17.9764 12.0417L10.9352 8.09439C10.7218 7.98771 10.4551 8.14773 10.4551 8.41445V15.5623C10.4551 16.2558 10.8285 16.9493 11.4686 17.3226C11.4686 17.3226 16.2694 20.0431 17.8163 20.8966C18.0297 21.0033 18.2964 20.8433 18.2964 20.5765V12.5752C18.2964 12.3618 18.1897 12.1484 17.9764 12.0417" fill="#3E3E3C"/>
        </symbol>
        
        <symbol width="32" height="36" viewBox="0 0 32 36" fill-rule="evenodd" id="Offer">
        <path d="M3.09387 23.5104H0.693453C0.320055 23.5104 0 23.8304 0 24.2038V32.792C0 33.1654 0.320055 33.4854 0.693453 33.4854H1.86699C2.93384 33.4854 3.78732 32.6319 3.78732 31.5651V24.2572C3.84066 23.8304 3.46726 23.5104 3.09387 23.5104Z" fill="#3E3E3C"/>
        <path d="M31.952 28.2045C31.5786 27.351 30.8852 26.4442 29.8717 26.3375C29.3383 26.2842 28.8048 26.4976 28.3247 26.6576C26.4044 27.351 24.4841 27.9912 22.5638 28.6846C21.3369 29.1113 20.0567 29.5381 18.7231 29.6448C17.8163 29.6981 16.9094 29.6448 16.0026 29.6448C15.5225 29.6448 15.0958 29.2714 15.0958 28.7379C15.0958 28.2045 15.4692 27.8311 16.0026 27.8311H20.8568C21.7636 27.8311 22.4571 27.0843 22.4571 26.2308C22.4571 25.3774 21.7103 24.6306 20.8568 24.6306H17.1228C16.9628 24.6306 15.9493 24.5772 15.3092 24.3105C14.6157 23.9905 13.7089 23.9371 13.7089 23.9905C13.7089 23.9905 13.7089 23.9905 13.6556 23.9905H7.14777C6.34763 23.9905 5.70752 24.6306 5.70752 25.4307V31.4584C5.70752 32.1519 6.24094 32.7386 6.9344 32.8453C6.98774 32.8453 7.04108 32.8453 7.09442 32.8453C8.3213 32.8453 9.54818 33.112 10.7751 33.3254C12.0019 33.5921 13.1755 33.7521 14.4557 33.7521C16.056 33.8055 17.7096 33.5388 19.2565 33.1654C20.8035 32.7386 22.297 32.1519 23.7906 31.6718C26.3511 30.8183 28.9649 29.9115 31.5253 29.058C31.8454 28.898 32.1121 28.6313 31.952 28.2045Z" fill="#3E3E3C"/>
        <path fill-rule="evenodd" clip-rule="evenodd" d="M20.27 12.5752V20.5765C20.27 20.8433 20.5367 20.9499 20.7501 20.8966C22.297 19.9898 27.0979 17.3226 27.0979 17.3226C27.738 16.9492 28.1114 16.3091 28.1114 15.5623V8.3611C28.1114 8.09439 27.8447 7.9877 27.6313 8.04105L20.5901 11.9884C20.43 12.1484 20.27 12.3618 20.27 12.5752" fill="#3E3E3C"/>
        <path fill-rule="evenodd" clip-rule="evenodd" d="M19.6302 10.3881L26.6714 6.44076C26.8847 6.33408 26.8847 6.01402 26.6714 5.90734C25.1244 5.00052 20.2703 2.28005 20.2703 2.28005C19.6302 1.90665 18.8834 1.90665 18.2433 2.28005C18.2433 2.28005 13.4424 5.00052 11.8422 5.90734C11.6288 6.01402 11.6288 6.33408 11.8422 6.44076L18.9901 10.3881C19.1501 10.4948 19.4168 10.4948 19.6302 10.3881" fill="#3E3E3C"/>
        <path fill-rule="evenodd" clip-rule="evenodd" d="M17.9764 12.0417L10.9352 8.09439C10.7218 7.98771 10.4551 8.14773 10.4551 8.41445V15.5623C10.4551 16.2558 10.8285 16.9493 11.4686 17.3226C11.4686 17.3226 16.2694 20.0431 17.8163 20.8966C18.0297 21.0033 18.2964 20.8433 18.2964 20.5765V12.5752C18.2964 12.3618 18.1897 12.1484 17.9764 12.0417" fill="#3E3E3C"/>
        </symbol>
        
        <symbol width="32" height="36" viewBox="0 0 32 36" fill-rule="evenodd" id="PayBill">
            <path fill-rule="evenodd" clip-rule="evenodd" d="M13.2305 7.6C13.3536 7.96924 13.7229 8.15385 14.0921 8.15385H19.0767C19.4459 8.15385 19.8152 7.96924 19.9382 7.6L21.9075 3.96924C22.0305 3.6 21.7844 3.23077 21.4152 3.23077H11.8152C11.4459 3.23077 11.1998 3.6 11.3844 3.9077L13.2305 7.6V7.6ZM19.5075 11.0462H13.7229C8.86131 11.0462 4.92285 15.0462 4.92285 19.9692V29.8154C4.92285 31.4154 6.21516 32.7692 7.8767 32.7692H25.3536C26.9536 32.7692 28.3075 31.4154 28.3075 29.8154V19.9692C28.3075 15.0462 24.3075 11.0462 19.5075 11.0462V11.0462ZM18.0921 27.6615V29.3231C18.0921 29.6308 17.7844 29.8154 17.4767 29.8154H15.5075C15.1998 29.8154 15.1382 29.6308 15.1382 29.3231V27.7231C13.6613 27.4154 12.4305 26.8 12.1229 26.4923C11.7536 26.1231 11.6305 25.8154 11.9382 25.3846L12.5536 24.4C12.6767 24.1539 12.9844 24.0308 13.2921 24.0308C13.4767 24.0308 13.6613 24.0923 13.7844 24.1539H13.8459C14.8305 24.7692 15.6921 25.0154 16.3075 25.0154C16.9844 25.0154 17.5382 24.6462 17.5382 24.2769C17.5382 23.9692 17.3536 23.4769 15.5075 22.8615C13.8459 22.2462 11.8152 21.2615 11.8152 18.9846C11.8152 17.6308 12.6767 16.0923 15.1382 15.6V14.1231C15.1382 13.8154 15.2613 13.6308 15.5075 13.6308H17.4767C17.7844 13.6308 18.0921 13.8154 18.0921 14.1231V15.5385C19.0767 15.7846 20.1229 16.2769 20.4921 16.5231C20.6767 16.6462 20.7998 16.8923 20.8613 17.1385C20.9229 17.3846 20.7998 17.6308 20.6767 17.7539L19.8152 18.6154C19.6305 18.8615 19.2613 19.0462 19.0152 19.0462C18.8921 19.0462 18.7075 18.9846 18.5844 18.9231C17.5998 18.3692 16.7998 18.0615 16.2459 18.0615C15.4459 18.0615 15.0767 18.4308 15.0767 18.6769C15.0767 19.0462 15.2613 19.4154 16.9229 20.0308C18.9536 20.7077 21.2305 21.8154 21.2305 24.1539C21.2921 25.7539 19.9998 27.1692 18.0921 27.6615V27.6615Z" fill="#3E3E3C"/>
        </symbol>
        
        <symbol width="32" height="36" viewBox="0 0 32 36" fill-rule="evenodd" id="Protection">
            <path fill-rule="evenodd" clip-rule="evenodd" d="M4.58484 11.5654H27.4156C27.9541 11.5654 28.3848 11.0269 28.2233 10.4885C27.6848 8.71155 26.931 7.09617 25.9079 5.64232C25.5848 5.21155 24.9925 5.1577 24.6695 5.53463C23.6464 6.50386 22.1925 7.04232 20.6848 7.04232C19.0695 7.04232 17.6156 6.39617 16.5387 5.31924C16.2156 4.99617 15.6771 4.99617 15.3541 5.31924C14.2771 6.39617 12.8233 7.04232 11.2079 7.04232C9.70022 7.04232 8.30023 6.50386 7.2233 5.53463C6.84638 5.21155 6.25407 5.2654 5.98484 5.64232C4.96176 7.04232 4.15407 8.71155 3.66946 10.4885C3.61561 11.0269 4.04638 11.5654 4.58484 11.5654V11.5654ZM28.9233 15.0115C28.9233 14.5269 28.5464 14.2577 28.0618 14.2577H3.93869C3.45407 14.2577 3.07715 14.5269 3.07715 15.0115V15.1731C3.07715 23.25 8.67715 29.9269 16.0002 30.95C23.3233 29.9269 28.9233 23.25 28.9233 15.2269V15.0115V15.0115Z" fill="#3E3E3C"/>
        </symbol>

        <symbol width="32" height="36" viewBox="0 0 32 36" fill-rule="evenodd" id="DeviceProtection">
            <path fill-rule="evenodd" clip-rule="evenodd" d="M4.58484 11.5654H27.4156C27.9541 11.5654 28.3848 11.0269 28.2233 10.4885C27.6848 8.71155 26.931 7.09617 25.9079 5.64232C25.5848 5.21155 24.9925 5.1577 24.6695 5.53463C23.6464 6.50386 22.1925 7.04232 20.6848 7.04232C19.0695 7.04232 17.6156 6.39617 16.5387 5.31924C16.2156 4.99617 15.6771 4.99617 15.3541 5.31924C14.2771 6.39617 12.8233 7.04232 11.2079 7.04232C9.70022 7.04232 8.30023 6.50386 7.2233 5.53463C6.84638 5.21155 6.25407 5.2654 5.98484 5.64232C4.96176 7.04232 4.15407 8.71155 3.66946 10.4885C3.61561 11.0269 4.04638 11.5654 4.58484 11.5654V11.5654ZM28.9233 15.0115C28.9233 14.5269 28.5464 14.2577 28.0618 14.2577H3.93869C3.45407 14.2577 3.07715 14.5269 3.07715 15.0115V15.1731C3.07715 23.25 8.67715 29.9269 16.0002 30.95C23.3233 29.9269 28.9233 23.25 28.9233 15.2269V15.0115V15.0115Z" fill="#3E3E3C"/>
        </symbol>
        
        <symbol width="32" height="36" viewBox="0 0 32 36" fill-rule="evenodd" id="Suspend">
            <path fill-rule="evenodd" clip-rule="evenodd" d="M27.797 27.2518C27.797 27.7771 28.2698 28.3025 28.8477 28.3025H30.9491C31.527 28.3025 31.9998 27.7246 31.9998 27.2518V9.39005C31.9998 8.8647 31.527 8.33936 30.9491 8.33936H28.8477C28.2698 8.33936 27.797 8.91724 27.797 9.39005V27.2518ZM19.3916 27.2518C19.3916 27.7771 19.8644 28.3025 20.4423 28.3025H22.5437C23.1216 28.3025 23.5944 27.7246 23.5944 27.2518V9.39005C23.5944 8.8647 23.1216 8.33936 22.5437 8.33936H20.4423C19.8644 8.33936 19.3916 8.91724 19.3916 9.39005V27.2518Z" fill="#3E3E3C"/>
            <path fill-rule="evenodd" clip-rule="evenodd" d="M0 27.3145V8.65745C0 8.13041 0.505556 7.76149 0.855556 8.18311L13.7667 17.3008C14.0778 17.6171 14.0778 18.3022 13.7667 18.6184L0.855556 27.8416C0.505556 28.2105 0 27.8943 0 27.3145Z" fill="#3E3E3C"/>
        </symbol>
        
        <symbol width="32" height="36" viewBox="0 0 32 36" fill-rule="evenodd" id="Upgrade">
            <path fill-rule="evenodd" clip-rule="evenodd" d="M23.9332 1H8.0665C6.1965 1 4.6665 2.53 4.6665 4.4V31.6C4.6665 33.47 6.1965 35 8.0665 35H23.9332C25.8032 35 27.3332 33.47 27.3332 31.6V4.4C27.3332 2.53 25.8032 1 23.9332 1ZM15.9998 33.8667C15.0365 33.8667 14.2998 33.13 14.2998 32.1667C14.2998 31.2033 15.0365 30.4667 15.9998 30.4667C16.9632 30.4667 17.6998 31.2033 17.6998 32.1667C17.6998 33.13 16.9632 33.8667 15.9998 33.8667ZM22.7998 29.3333C23.4232 29.3333 23.9332 28.8233 23.9332 28.2V6.66667C23.9332 6.04333 23.4232 5.53333 22.7998 5.53333H9.19984C8.5765 5.53333 8.0665 6.04333 8.0665 6.66667V28.2C8.0665 28.8233 8.5765 29.3333 9.19984 29.3333H22.7998Z" fill="#3E3E3C"/>
        </symbol>
        <symbol width="32" height="36" viewBox="0 0 32 36" fill-rule="evenodd" id="Usage">
            <path fill-rule="evenodd" clip-rule="evenodd" d="M5.16942 22.6C2.64634 20.0769 1.23096 16.6923 1.23096 13.1231C1.23096 9.55385 2.64634 6.16924 5.16942 3.64616C5.72326 3.09231 6.52326 3.09231 7.07711 3.64616C7.63096 4.2 7.63096 5.06154 7.07711 5.61539C5.10788 7.58462 4.00019 10.2923 4.00019 13.1231C4.00019 15.9539 5.10788 18.6615 7.07711 20.6308C7.63096 21.1846 7.63096 22.0462 7.07711 22.6C6.52326 23.1539 5.72326 23.1539 5.16942 22.6ZM11.0156 18.6615C10.4617 19.2154 9.60019 19.2154 9.04634 18.6615C7.56942 17.1846 6.76942 15.2154 6.76942 13.1231C6.76942 11.0308 7.56942 9.06154 9.04634 7.58462C9.60019 7.03077 10.4617 7.03077 11.0156 7.58462C11.5694 8.13847 11.5694 9 11.0156 9.55385C10.031 10.5385 9.53865 11.7692 9.53865 13.1231C9.53865 14.4769 10.0925 15.7692 11.0156 16.6923C11.5694 17.2462 11.5694 18.1077 11.0156 18.6615ZM24.8002 3.64616C25.354 3.09231 26.2156 3.09231 26.7694 3.64616C29.2925 6.16924 30.7079 9.55385 30.7079 13.1231C30.7079 16.6923 29.2925 20.0769 26.7694 22.6C26.2156 23.1539 25.354 23.1539 24.8002 22.6C24.2463 22.0462 24.2463 21.1846 24.8002 20.6308C26.831 18.6615 27.9386 15.9539 27.9386 13.1231C27.9386 10.2923 26.7694 7.58462 24.8002 5.61539C24.2463 5.06154 24.2463 4.2 24.8002 3.64616ZM25.1694 13.1231C25.1079 11.0308 24.3079 9.06154 22.831 7.58462C22.2771 7.03077 21.4771 7.03077 20.9233 7.58462C20.3694 8.13847 20.3694 9 20.9233 9.55385C21.8463 10.5385 22.4002 11.7692 22.4002 13.1231C22.4002 14.4769 21.8463 15.7692 20.9233 16.6923C20.3694 17.2462 20.3694 18.1077 20.9233 18.6615C21.4771 19.2154 22.2771 19.2154 22.831 18.6615C24.3079 17.1846 25.1079 15.2154 25.1079 13.1231H25.1694ZM12.3694 13.0615C12.3694 14.6 13.231 15.8923 14.5848 16.4462V18.0462V30.9077C14.5848 31.2769 14.8925 31.5846 15.2617 31.5846H16.6156C16.9848 31.6462 17.354 31.2769 17.354 30.9077V18.1077V16.3846C18.6463 15.8308 19.5694 14.6 19.5694 13.0615C19.5694 11.0923 17.9079 9.49231 15.9387 9.49231C13.9694 9.49231 12.3694 11.0923 12.3694 13.0615Z" fill="#3E3E3C"/>
        </symbol>
        <symbol width="32" height="36" viewBox="0 0 32 36" fill-rule="evenodd" id="DataUsage">
            <path fill-rule="evenodd" clip-rule="evenodd" d="M5.16942 22.6C2.64634 20.0769 1.23096 16.6923 1.23096 13.1231C1.23096 9.55385 2.64634 6.16924 5.16942 3.64616C5.72326 3.09231 6.52326 3.09231 7.07711 3.64616C7.63096 4.2 7.63096 5.06154 7.07711 5.61539C5.10788 7.58462 4.00019 10.2923 4.00019 13.1231C4.00019 15.9539 5.10788 18.6615 7.07711 20.6308C7.63096 21.1846 7.63096 22.0462 7.07711 22.6C6.52326 23.1539 5.72326 23.1539 5.16942 22.6ZM11.0156 18.6615C10.4617 19.2154 9.60019 19.2154 9.04634 18.6615C7.56942 17.1846 6.76942 15.2154 6.76942 13.1231C6.76942 11.0308 7.56942 9.06154 9.04634 7.58462C9.60019 7.03077 10.4617 7.03077 11.0156 7.58462C11.5694 8.13847 11.5694 9 11.0156 9.55385C10.031 10.5385 9.53865 11.7692 9.53865 13.1231C9.53865 14.4769 10.0925 15.7692 11.0156 16.6923C11.5694 17.2462 11.5694 18.1077 11.0156 18.6615ZM24.8002 3.64616C25.354 3.09231 26.2156 3.09231 26.7694 3.64616C29.2925 6.16924 30.7079 9.55385 30.7079 13.1231C30.7079 16.6923 29.2925 20.0769 26.7694 22.6C26.2156 23.1539 25.354 23.1539 24.8002 22.6C24.2463 22.0462 24.2463 21.1846 24.8002 20.6308C26.831 18.6615 27.9386 15.9539 27.9386 13.1231C27.9386 10.2923 26.7694 7.58462 24.8002 5.61539C24.2463 5.06154 24.2463 4.2 24.8002 3.64616ZM25.1694 13.1231C25.1079 11.0308 24.3079 9.06154 22.831 7.58462C22.2771 7.03077 21.4771 7.03077 20.9233 7.58462C20.3694 8.13847 20.3694 9 20.9233 9.55385C21.8463 10.5385 22.4002 11.7692 22.4002 13.1231C22.4002 14.4769 21.8463 15.7692 20.9233 16.6923C20.3694 17.2462 20.3694 18.1077 20.9233 18.6615C21.4771 19.2154 22.2771 19.2154 22.831 18.6615C24.3079 17.1846 25.1079 15.2154 25.1079 13.1231H25.1694ZM12.3694 13.0615C12.3694 14.6 13.231 15.8923 14.5848 16.4462V18.0462V30.9077C14.5848 31.2769 14.8925 31.5846 15.2617 31.5846H16.6156C16.9848 31.6462 17.354 31.2769 17.354 30.9077V18.1077V16.3846C18.6463 15.8308 19.5694 14.6 19.5694 13.0615C19.5694 11.0923 17.9079 9.49231 15.9387 9.49231C13.9694 9.49231 12.3694 11.0923 12.3694 13.0615Z" fill="#3E3E3C"/>
        </symbol>
       
        </defs>
        </svg>
