<svg width="36" height="22" viewBox="0 0 36 22" fill="none" xmlns="http://www.w3.org/2000/svg" id="logo">
<mask id="mask0" mask-type="alpha" maskUnits="userSpaceOnUse" x="0" y="0" width="36" height="22">
<rect width="36" height="22" rx="2" fill="#C4C4C4"/>
</mask>
<g mask="url(#mask0)">
<rect x="-4" y="-3" width="43" height="29" fill="#F7F7F7"/>
<path d="M6.06862 16.0028C6.06862 16.4265 6.37228 16.4764 6.64082 16.4764C7.83055 16.4764 8.22033 15.5801 8.22033 14.7598C8.22033 13.731 7.55975 12.9888 6.49806 12.9888C6.27144 12.9888 6.16833 13.0047 6.06862 13.0115V16.0028ZM5.53041 13.4228C5.53041 12.9287 5.27094 12.9605 5.02393 12.9559V12.8154C5.23921 12.8256 5.45789 12.8256 5.67318 12.8256C5.88846 12.8256 6.21819 12.8154 6.62496 12.8154C8.04923 12.8154 8.82539 13.7661 8.82539 14.7417C8.82539 15.2867 8.50699 16.6565 6.55924 16.6565C6.27824 16.6565 6.0199 16.6452 5.76609 16.6452C5.51228 16.6452 5.27547 16.6452 5.02846 16.6565V16.5092C5.35818 16.4764 5.51908 16.4651 5.53494 16.0911L5.53041 13.4228Z" fill="#231F20"/>
<path d="M9.60726 13.2913C9.53574 13.2913 9.46715 13.2629 9.41658 13.2123C9.36601 13.1617 9.33759 13.0931 9.33759 13.0216C9.33759 12.9501 9.36601 12.8815 9.41658 12.8309C9.46715 12.7804 9.53574 12.752 9.60726 12.752C9.67781 12.7519 9.74556 12.7796 9.79598 12.8289C9.84639 12.8783 9.87545 12.9454 9.87694 13.016C9.87724 13.0881 9.84911 13.1575 9.79863 13.209C9.74815 13.2605 9.6794 13.2901 9.60726 13.2913ZM9.01807 16.5092H9.12231C9.27641 16.5092 9.38632 16.5092 9.38632 16.3279V14.8368C9.38632 14.5955 9.30474 14.5615 9.10078 14.4516V14.3643C9.35912 14.2861 9.66732 14.183 9.68885 14.166C9.71903 14.148 9.75341 14.1382 9.78856 14.1377C9.81575 14.1377 9.82708 14.1717 9.82708 14.2159V16.3279C9.82708 16.5092 9.94832 16.5092 10.1024 16.5092H10.1953V16.6531C10.0084 16.6531 9.81575 16.6418 9.61746 16.6418C9.41918 16.6418 9.22202 16.6418 9.01807 16.6531V16.5092Z" fill="#231F20"/>
<path d="M10.7176 14.8698C10.7176 14.667 10.6575 14.6115 10.3992 14.5072V14.4019C10.6458 14.3263 10.8882 14.2378 11.1255 14.1367C11.1413 14.1367 11.1572 14.148 11.1572 14.1922V14.5503C11.4722 14.3237 11.7419 14.1367 12.1101 14.1367C12.5769 14.1367 12.7424 14.4766 12.7424 14.9072V16.3281C12.7424 16.5094 12.8636 16.5094 13.0177 16.5094H13.1163V16.6533C12.9237 16.6533 12.731 16.6419 12.5339 16.6419C12.3367 16.6419 12.1373 16.6419 11.939 16.6533V16.5094H12.0387C12.1928 16.5094 12.3016 16.5094 12.3016 16.3281V14.9038C12.3016 14.5899 12.1101 14.4358 11.7963 14.4358C11.6206 14.4358 11.343 14.5786 11.1572 14.6999V16.3281C11.1572 16.5094 11.2796 16.5094 11.4337 16.5094H11.5322V16.6533C11.3396 16.6533 11.147 16.6419 10.9487 16.6419C10.7504 16.6419 10.5533 16.6419 10.355 16.6533V16.5094H10.4547C10.6077 16.5094 10.7176 16.5094 10.7176 16.3281V14.8698Z" fill="#231F20"/>
<path d="M14.5086 14.9571C14.6457 14.9571 14.6616 14.8857 14.6616 14.8188C14.6616 14.539 14.4916 14.3135 14.1834 14.3135C13.8435 14.3135 13.6169 14.5605 13.5512 14.9571H14.5086ZM13.5353 15.1338C13.5226 15.2396 13.5226 15.3465 13.5353 15.4522C13.567 15.9746 13.9036 16.404 14.3432 16.404C14.6457 16.404 14.8825 16.2386 15.0865 16.0357L15.1624 16.1128C14.9097 16.4527 14.5959 16.7349 14.1426 16.7349C13.2679 16.7349 13.0923 15.8862 13.0923 15.5349C13.0923 14.4562 13.8186 14.1367 14.2027 14.1367C14.6491 14.1367 15.1284 14.4177 15.133 15.0013C15.1352 15.0341 15.1352 15.067 15.133 15.0998L15.0831 15.1338H13.5353Z" fill="#231F20"/>
<path d="M15.2627 16.5082H15.4111C15.5652 16.5082 15.6751 16.5082 15.6751 16.3269V14.7814C15.6751 14.6103 15.4712 14.5775 15.3885 14.5333V14.4506C15.7907 14.2806 16.0105 14.1367 16.0604 14.1367C16.1102 14.1367 16.1091 14.1537 16.1091 14.2092V14.7044H16.1216C16.2587 14.4902 16.4898 14.1378 16.8252 14.1378C16.865 14.1362 16.9048 14.1425 16.9421 14.1563C16.9795 14.1702 17.0137 14.1913 17.0428 14.2185C17.0719 14.2457 17.0953 14.2784 17.1117 14.3148C17.128 14.3511 17.1369 14.3904 17.1379 14.4302C17.1399 14.4656 17.1348 14.5011 17.1229 14.5345C17.1109 14.568 17.0925 14.5987 17.0685 14.6248C17.0445 14.651 17.0156 14.6721 16.9833 14.687C16.9511 14.7018 16.9162 14.71 16.8807 14.7112C16.7096 14.7112 16.7096 14.5786 16.517 14.5786C16.4068 14.5935 16.3056 14.6475 16.2318 14.7306C16.158 14.8138 16.1165 14.9207 16.1148 15.0318V16.3269C16.1148 16.5082 16.2281 16.5082 16.3788 16.5082H16.687V16.6521C16.3844 16.6453 16.1544 16.6408 15.9176 16.6408C15.6808 16.6408 15.4644 16.6408 15.2627 16.6521V16.5082Z" fill="#231F20"/>
<path d="M17.3764 15.887C17.4478 16.2507 17.6676 16.5589 18.0698 16.5589C18.3939 16.5589 18.5151 16.3606 18.5151 16.168C18.5151 15.5188 17.3164 15.7284 17.3164 14.8423C17.3164 14.5341 17.5634 14.1387 18.1684 14.1387C18.3867 14.1439 18.6009 14.1985 18.795 14.2984L18.8347 14.865H18.7078C18.6522 14.5183 18.4608 14.32 18.1084 14.32C17.8874 14.32 17.6789 14.4469 17.6789 14.6825C17.6789 15.3273 18.9548 15.129 18.9548 15.9924C18.9548 16.355 18.6636 16.7413 18.0087 16.7413C17.7731 16.7341 17.5429 16.6695 17.3379 16.5533L17.2778 15.921L17.3764 15.887Z" fill="#231F20"/>
<path d="M23.926 13.8085H23.7889C23.6847 13.166 23.2281 12.902 22.6128 12.902C21.9794 12.902 21.0605 13.3258 21.0605 14.6458C21.0605 15.7574 21.8536 16.5551 22.7 16.5551C22.9678 16.5551 23.2266 16.459 23.4296 16.2844C23.6325 16.1097 23.766 15.868 23.8059 15.6033L23.9328 15.6361L23.8059 16.4418C23.5793 16.5845 22.9527 16.7341 22.589 16.7341C21.303 16.7341 20.4883 15.9024 20.4883 14.6651C20.4883 13.532 21.4956 12.7275 22.5743 12.7275C23.0196 12.7275 23.4479 12.8714 23.8716 13.0199L23.926 13.8085Z" fill="#231F20"/>
<path d="M24.1252 16.5094H24.2294C24.3835 16.5094 24.4934 16.5094 24.4934 16.3281V13.2688C24.4934 12.9107 24.4107 12.9005 24.2011 12.8393V12.751C24.3966 12.6892 24.5862 12.6099 24.7676 12.5142C24.8054 12.49 24.8457 12.4698 24.8877 12.4541C24.9217 12.4541 24.9319 12.487 24.9319 12.5311V16.3281C24.9319 16.5094 25.0531 16.5094 25.2072 16.5094H25.3002V16.6533C25.1143 16.6533 24.9217 16.6419 24.7234 16.6419C24.5251 16.6419 24.328 16.6419 24.124 16.6533L24.1252 16.5094Z" fill="#231F20"/>
<path d="M27.6569 16.3496C27.6569 16.4493 27.717 16.455 27.8099 16.455C27.8767 16.455 27.9583 16.4493 28.0308 16.4493V16.5626C27.7625 16.5996 27.4974 16.6568 27.2377 16.7337L27.2094 16.7167V16.2703C26.8796 16.5399 26.627 16.7337 26.2349 16.7337C25.9381 16.7337 25.631 16.5399 25.631 16.0788V14.6726C25.631 14.5287 25.6083 14.3916 25.3013 14.3644V14.2591C25.4996 14.2591 25.9381 14.2217 26.0106 14.2217C26.0831 14.2217 26.0718 14.2591 26.0718 14.3803V15.8001C26.0718 15.9655 26.0718 16.438 26.5499 16.438C26.7369 16.438 26.9839 16.2952 27.215 16.098V14.6285C27.215 14.5151 26.951 14.4574 26.7539 14.4018V14.3033C27.2479 14.2693 27.5561 14.2262 27.6116 14.2262C27.6671 14.2262 27.6558 14.2636 27.6558 14.3248L27.6569 16.3496Z" fill="#231F20"/>
<path d="M28.7517 16.0312C28.7594 16.1784 28.8218 16.3174 28.9265 16.4212C29.0313 16.5249 29.1709 16.5858 29.3182 16.5921C29.9063 16.5921 30.1544 16.0142 30.1544 15.5247C30.1544 14.931 29.7012 14.4358 29.274 14.4358C29.0701 14.4358 28.9001 14.5673 28.7517 14.6942V16.0312ZM28.7517 14.5344C28.9715 14.3475 29.2684 14.1379 29.5709 14.1379C30.2099 14.1379 30.5906 14.6942 30.5906 15.2936C30.5906 16.0142 30.0626 16.736 29.2763 16.736C29.0092 16.7358 28.7464 16.6692 28.5115 16.5422L28.3506 16.668L28.2373 16.6079C28.2876 16.2836 28.3133 15.956 28.3143 15.6278V13.2688C28.3143 12.9107 28.2316 12.9005 28.022 12.8393V12.751C28.2176 12.6893 28.4072 12.61 28.5885 12.5142C28.6267 12.4899 28.6673 12.4697 28.7097 12.4541C28.7426 12.4541 28.7539 12.487 28.7539 12.5311L28.7517 14.5344Z" fill="#231F20"/>
<path d="M5.01807 19.8514H5.05999C5.16763 19.8514 5.28094 19.8367 5.28094 19.6803V18.1122C5.28094 17.9558 5.16763 17.9411 5.05999 17.9411H5.01807V17.8516C5.13137 17.8516 5.3138 17.8629 5.4611 17.8629C5.6084 17.8629 5.78969 17.8516 5.93133 17.8516V17.9411H5.88827C5.78176 17.9411 5.66165 17.9558 5.66165 18.1122V19.6803C5.66165 19.8367 5.77496 19.8514 5.88827 19.8514H5.93246V19.941C5.78856 19.941 5.6084 19.9296 5.45883 19.9296C5.30927 19.9296 5.13591 19.941 5.0192 19.941L5.01807 19.8514Z" fill="#231F20"/>
<path d="M5.91779 19.9279V19.8634H5.88946C5.77615 19.8634 5.65492 19.8452 5.65378 19.6798V18.1116C5.65378 17.9462 5.78182 17.9281 5.88946 17.9281H5.91779V17.8635C5.77955 17.8635 5.60619 17.8759 5.46456 17.8759C5.32292 17.8759 5.1507 17.8646 5.03399 17.8635V17.9281H5.06345C5.16996 17.9281 5.29686 17.9462 5.29686 18.1116V19.6798C5.29686 19.8452 5.16996 19.8634 5.06345 19.8634H5.02606V19.9279C5.13937 19.9279 5.3116 19.9155 5.45323 19.9155C5.59486 19.9155 5.77276 19.9268 5.91326 19.9279H5.91779ZM5.92685 19.9529C5.78182 19.9529 5.6028 19.9415 5.45323 19.9415C5.30366 19.9415 5.13144 19.9529 5.0136 19.9529H5V19.8396H5.05552C5.16883 19.8396 5.26287 19.8282 5.26401 19.6821V18.1116C5.26401 17.9655 5.16429 17.9553 5.05552 17.9541H5V17.8408H5.0136C5.1269 17.8408 5.31046 17.8533 5.45663 17.8533C5.60279 17.8533 5.78522 17.8408 5.92685 17.8408H5.93932V17.9541H5.88493C5.77162 17.9541 5.67645 17.9655 5.67645 18.1116V19.6798C5.67645 19.826 5.77616 19.835 5.88493 19.8373H5.93932V19.9506L5.92685 19.9529Z" fill="#231F20"/>
<path d="M7.98799 19.3506L7.99365 19.345V18.2232C7.99897 18.1868 7.99607 18.1496 7.98517 18.1145C7.97428 18.0793 7.95566 18.047 7.93068 18.02C7.9057 17.9929 7.87498 17.9718 7.84079 17.9581C7.8066 17.9445 7.76978 17.9387 7.73304 17.9411H7.66733V17.8516C7.80783 17.8516 7.94606 17.8629 8.08656 17.8629C8.20894 17.8629 8.33244 17.8516 8.45481 17.8516V17.9411H8.40949C8.28372 17.9411 8.14322 17.9649 8.14322 18.3218V19.6815C8.14121 19.7826 8.14689 19.8837 8.16021 19.984H8.04691L6.50593 18.2651V19.5002C6.50593 19.7608 6.55578 19.8503 6.78693 19.8503H6.83905V19.9398C6.70988 19.9398 6.58184 19.9285 6.45267 19.9285C6.3235 19.9285 6.18073 19.9398 6.0459 19.9398V19.8503H6.08782C6.29404 19.8503 6.35749 19.7087 6.35749 19.4707V18.2107C6.3575 18.175 6.35041 18.1397 6.33665 18.1068C6.32288 18.0738 6.30271 18.0439 6.27731 18.0188C6.25191 17.9938 6.22178 17.974 6.18867 17.9606C6.15556 17.9473 6.12012 17.9406 6.08442 17.9411H6.0459V17.8516C6.15921 17.8516 6.27251 17.8629 6.38582 17.8629C6.47647 17.8629 6.56371 17.8516 6.65323 17.8516L7.98799 19.3506Z" fill="#231F20"/>
<path d="M7.98791 19.3501L7.99698 19.3421L7.98791 19.3501ZM8.04683 19.9721H8.14541C8.13406 19.8763 8.12913 19.7797 8.13068 19.6832V18.3235C8.13068 17.9643 8.28024 17.9303 8.40941 17.9292H8.44114V17.8657C8.32783 17.8657 8.20546 17.8782 8.08649 17.8782C7.94939 17.8782 7.81568 17.8669 7.68085 17.8657V17.9292H7.7341C7.77242 17.9274 7.81066 17.934 7.84615 17.9486C7.88164 17.9631 7.91351 17.9853 7.93953 18.0135C7.96555 18.0416 7.98509 18.0752 7.99678 18.1117C8.00846 18.1482 8.01201 18.1869 8.00717 18.2249V19.358L8.00151 19.3637L7.99131 19.3739L6.65995 17.868C6.57044 17.868 6.48432 17.8805 6.39254 17.8805C6.27924 17.8805 6.16593 17.8691 6.06169 17.868V17.9315H6.08775C6.12514 17.9312 6.16222 17.9383 6.19685 17.9524C6.23147 17.9665 6.26297 17.9873 6.28951 18.0136C6.31606 18.04 6.33713 18.0713 6.3515 18.1058C6.36588 18.1403 6.37328 18.1773 6.37328 18.2147V19.4758C6.37328 19.7149 6.30643 19.8679 6.09115 19.869H6.06169V19.9336C6.19199 19.9336 6.32569 19.9211 6.45599 19.9211C6.5863 19.9211 6.70527 19.9325 6.82878 19.9336V19.8702H6.79139C6.55571 19.8702 6.49679 19.7659 6.49679 19.5064V18.2329L8.04683 19.9721ZM8.16014 19.9982H8.03777L6.51831 18.3054V19.4996C6.51831 19.7591 6.56137 19.8339 6.78685 19.8396H6.85031V19.9529H6.83897C6.70867 19.9529 6.58063 19.9415 6.4526 19.9415C6.32456 19.9415 6.18066 19.9529 6.04582 19.9529H6.03223V19.8396H6.08775C6.2849 19.8396 6.34156 19.7115 6.34382 19.4736V18.2102C6.34398 18.1762 6.33735 18.1426 6.32432 18.1112C6.31129 18.0799 6.29213 18.0514 6.26796 18.0276C6.24379 18.0037 6.2151 17.9849 6.18357 17.9723C6.15203 17.9597 6.1183 17.9535 6.08435 17.9541H6.03223V17.8408H6.04582C6.15913 17.8408 6.27244 17.8533 6.38574 17.8533C6.47526 17.8533 6.56137 17.8408 6.66222 17.8454L7.97771 19.3263V18.2261C7.97771 17.9881 7.81795 17.9587 7.7307 17.9575H7.65139V17.8442H7.66498C7.80662 17.8442 7.94372 17.8567 8.08422 17.8567C8.20546 17.8567 8.32783 17.8442 8.45247 17.8442H8.46494V17.9575H8.40715C8.28364 17.9575 8.15674 17.9711 8.15334 18.3246V19.6843C8.15166 19.7847 8.15772 19.8851 8.17147 19.9846V19.9993L8.16014 19.9982Z" fill="#231F20"/>
<path d="M8.90229 18.0013C8.67568 18.0013 8.66888 18.0557 8.62469 18.2732H8.53857C8.55104 18.1894 8.56577 18.1055 8.57483 18.0194C8.58719 17.935 8.59325 17.8498 8.59296 17.7645H8.66435C8.68927 17.8551 8.76406 17.8517 8.8445 17.8517H10.3889C10.4705 17.8517 10.5452 17.8517 10.5509 17.7588L10.6223 17.7713C10.611 17.8517 10.5985 17.9321 10.5894 18.0137C10.5804 18.0953 10.5781 18.1746 10.5781 18.2539L10.4886 18.2879C10.4818 18.1746 10.4671 18.0001 10.262 18.0001H9.77136V19.5921C9.77136 19.8187 9.87673 19.8504 10.0195 19.8504H10.0773V19.94C9.96398 19.94 9.74983 19.9286 9.58893 19.9286C9.40878 19.9286 9.19916 19.94 9.08245 19.94V19.8504H9.14024C9.30453 19.8504 9.38838 19.8357 9.38838 19.5989V18.0013H8.90229Z" fill="#231F20"/>
<path d="M10.083 19.9541C9.96973 19.9541 9.75558 19.9428 9.59468 19.9428C9.41566 19.9428 9.20604 19.9541 9.0882 19.9541H9.07573V19.8408H9.14598C9.31028 19.8408 9.3726 19.8352 9.38053 19.6029V18.0166H8.90237V17.9905H9.40659V19.6029C9.40659 19.8431 9.30915 19.8669 9.14598 19.868H9.10519V19.9303C9.2185 19.9303 9.42585 19.919 9.59921 19.919C9.75558 19.919 9.955 19.9303 10.074 19.9303V19.868H10.0298C9.88475 19.868 9.76917 19.8318 9.76917 19.5961V17.9883H10.2723C10.4739 17.9883 10.4989 18.1594 10.5068 18.2715L10.5714 18.2477C10.5714 18.1696 10.5714 18.0914 10.5714 18.0121C10.5714 17.9327 10.5907 17.8591 10.602 17.7854L10.5567 17.7775C10.5431 17.8648 10.4581 17.8693 10.3833 17.8682H8.82532C8.75394 17.8682 8.67802 17.8682 8.65083 17.782H8.60098C8.60107 17.8632 8.59539 17.9442 8.58398 18.0245C8.57491 18.1072 8.56132 18.1854 8.54999 18.2647H8.61457C8.6531 18.0562 8.67916 17.9883 8.90237 17.9917V18.0177C8.67576 18.0177 8.68596 18.0596 8.63723 18.2806V18.2908H8.52393V18.2749C8.53526 18.1922 8.55112 18.1072 8.56018 18.0211C8.57251 17.9375 8.57857 17.853 8.57831 17.7684V17.756H8.67236V17.765C8.69275 17.841 8.74827 17.841 8.82532 17.8421H10.3844C10.4671 17.8421 10.5283 17.8421 10.534 17.7616V17.748H10.5465L10.6314 17.7616V17.7741C10.6201 17.8546 10.6076 17.935 10.5997 18.0155C10.5918 18.0959 10.5941 18.1763 10.5941 18.2568V18.2659H10.585L10.4785 18.3055V18.2874C10.4705 18.1741 10.4581 18.0121 10.2689 18.0121H9.79184V19.5916C9.79184 19.8182 9.88362 19.834 10.0264 19.8363H10.0966V19.9496L10.083 19.9541Z" fill="#231F20"/>
<path d="M10.7129 19.8514H10.7559C10.8693 19.8514 10.9826 19.8367 10.9826 19.6803V18.1122C10.9826 17.9558 10.8693 17.9411 10.7559 17.9411H10.7129V17.8516C10.8953 17.8516 11.208 17.8629 11.4585 17.8629C11.7089 17.8629 12.025 17.8516 12.2244 17.8516C12.2244 17.9796 12.2244 18.1779 12.2312 18.3048L12.1406 18.3286C12.127 18.1337 12.0907 17.9785 11.7757 17.9785H11.361V18.7626H11.7111C11.8913 18.7626 11.9309 18.6617 11.9479 18.4997H12.0375C12.0375 18.613 12.0284 18.7331 12.0284 18.8498C12.0284 18.9665 12.0284 19.0764 12.0375 19.1897L11.9479 19.2079C11.9309 19.0288 11.9219 18.9121 11.7145 18.9121H11.3565V19.6135C11.3565 19.8084 11.5287 19.8084 11.7202 19.8084C12.0805 19.8084 12.238 19.7835 12.3287 19.4435L12.4125 19.4639C12.3728 19.6226 12.3377 19.7812 12.3105 19.9398C12.119 19.9398 11.7746 19.9285 11.506 19.9285C11.2375 19.9285 10.8795 19.9398 10.7129 19.9398V19.8514Z" fill="#231F20"/>
<path d="M12.3037 19.9268C12.3297 19.7761 12.3637 19.6243 12.4011 19.4736L12.3422 19.4589C12.2515 19.7988 12.0782 19.8237 11.7246 19.8214C11.5366 19.8214 11.3473 19.8214 11.3473 19.6141V18.9036H11.719C11.9286 18.9036 11.9456 19.0271 11.9637 19.1982L12.0283 19.1846C12.0226 19.0713 12.0204 18.958 12.0204 18.8538C12.0204 18.7495 12.0204 18.6272 12.0283 18.5139H11.9637C11.9479 18.6702 11.898 18.779 11.7156 18.7779H11.3473V17.97H11.7756C12.0872 17.97 12.1394 18.1286 12.153 18.3167L12.2175 18.2986C12.2119 18.2147 12.2085 18.106 12.2085 18.0063C12.2085 17.9553 12.2085 17.9065 12.2085 17.8635C12.0045 17.8635 11.7009 17.8759 11.455 17.8759C11.2091 17.8759 10.9066 17.8646 10.723 17.8635V17.9269H10.7525C10.859 17.9269 10.9859 17.9462 10.987 18.1116V19.6798C10.987 19.8452 10.859 19.8634 10.7525 19.8645H10.723V19.9268C10.8975 19.9268 11.2431 19.9155 11.506 19.9155C11.7688 19.9155 12.1076 19.9268 12.2991 19.9268H12.3037ZM12.3104 19.9529C12.1178 19.9529 11.7734 19.9404 11.5048 19.9404C11.2363 19.9404 10.8794 19.9529 10.7117 19.9529H10.6992V19.8396H10.7547C10.868 19.8396 10.961 19.8282 10.9621 19.6821V18.1116C10.9621 17.9655 10.8624 17.9553 10.7547 17.9541H10.6992V17.8408H10.7117C10.8952 17.8408 11.2068 17.8533 11.4572 17.8533C11.7077 17.8533 12.0238 17.8408 12.2232 17.8408H12.2368V17.8556C12.2368 17.8997 12.2368 17.953 12.2368 18.0097C12.2368 18.1128 12.2368 18.2261 12.2459 18.311V18.3224H12.2357L12.1314 18.3507V18.3348C12.1133 18.1411 12.0872 17.9949 11.779 17.9949H11.3711V18.7541H11.7111C11.8844 18.7541 11.915 18.6634 11.9377 18.5025V18.4901H12.051V18.5037C12.051 18.617 12.0419 18.7371 12.0419 18.8538C12.0419 18.9705 12.0419 19.0804 12.051 19.1937V19.2039H12.0396L11.9354 19.2254V19.2107C11.915 19.0283 11.9127 18.9286 11.7088 18.9263H11.3711V19.6062C11.3711 19.7874 11.5286 19.7863 11.7235 19.7874C12.085 19.7874 12.2289 19.7682 12.3195 19.4328V19.4203H12.332L12.4283 19.4453V19.4566C12.3886 19.6152 12.3535 19.7738 12.3263 19.9325V19.9427L12.3104 19.9529Z" fill="#231F20"/>
<path d="M13.2039 18.8621H13.3501C13.6504 18.8621 13.8113 18.7488 13.8113 18.3953C13.8155 18.3368 13.8071 18.2781 13.7866 18.2232C13.7661 18.1683 13.734 18.1184 13.6925 18.077C13.651 18.0356 13.601 18.0036 13.5461 17.9833C13.4911 17.9629 13.4324 17.9547 13.3739 17.959C13.317 17.9596 13.2603 17.9638 13.2039 17.9715V18.8621ZM12.821 18.1687C12.821 17.95 12.7009 17.9421 12.6079 17.9421H12.5547V17.8525C12.6499 17.8525 12.8357 17.8639 13.0181 17.8639C13.2005 17.8639 13.3422 17.8525 13.5008 17.8525C13.877 17.8525 14.2135 17.9545 14.2135 18.3794C14.2135 18.6491 14.0333 18.8134 13.7965 18.9063L14.3087 19.6723C14.3362 19.7257 14.3777 19.7708 14.4288 19.8025C14.4799 19.8342 14.5386 19.8515 14.5988 19.8524V19.9419C14.5002 19.9419 14.4039 19.9306 14.3064 19.9306C14.209 19.9306 14.1172 19.9419 14.0243 19.9419C13.7948 19.6331 13.5866 19.3091 13.4011 18.972H13.2039V19.6133C13.2039 19.84 13.3116 19.8535 13.4487 19.8535H13.5031V19.9431C13.332 19.9431 13.1631 19.9317 12.9887 19.9317C12.8448 19.9317 12.7043 19.9431 12.5547 19.9431V19.8535H12.6079C12.7212 19.8535 12.821 19.8026 12.821 19.6915V18.1687Z" fill="#231F20"/>
<path d="M13.3492 18.8493C13.6461 18.8493 13.7956 18.7439 13.8024 18.396C13.8067 18.3391 13.7986 18.282 13.7787 18.2286C13.7588 18.1751 13.7277 18.1265 13.6874 18.0862C13.647 18.0459 13.5985 18.0147 13.545 17.9948C13.4915 17.975 13.4344 17.9669 13.3775 17.9711C13.3252 17.9715 13.273 17.9753 13.2212 17.9825V18.8493H13.3492ZM13.203 18.8753H13.1906V17.9587H13.2019C13.2586 17.9514 13.3158 17.9477 13.373 17.9473C13.4337 17.9428 13.4946 17.9513 13.5517 17.9725C13.6088 17.9937 13.6606 18.0269 13.7036 18.0699C13.7467 18.113 13.7799 18.1648 13.8011 18.2218C13.8222 18.2789 13.8308 18.3399 13.8262 18.4006C13.8262 18.7586 13.654 18.8799 13.3515 18.8799L13.203 18.8753ZM13.203 18.9569H13.4104V18.9637C13.5945 19.2973 13.7988 19.6193 14.0222 19.9279C14.114 19.9279 14.2092 19.9155 14.3032 19.9155C14.3973 19.9155 14.4913 19.9257 14.5842 19.9268V19.8611C14.5243 19.8586 14.4662 19.8403 14.4156 19.8081C14.3651 19.7758 14.324 19.7308 14.2964 19.6775L13.7752 18.8991L13.79 18.8923C14.0245 18.8005 14.1979 18.6408 14.1979 18.3779C14.1979 17.9621 13.8749 17.8657 13.4988 17.8635C13.3413 17.8635 13.1974 17.8759 13.0161 17.8759C12.8348 17.8759 12.6625 17.8646 12.5628 17.8635V17.9269H12.6036C12.6965 17.9269 12.8302 17.9428 12.8302 18.1683V19.6889C12.8302 19.809 12.7169 19.8634 12.6036 19.8645H12.5628V19.9268C12.7067 19.9268 12.8438 19.9155 12.9843 19.9155C13.1509 19.9155 13.3243 19.9268 13.4863 19.9268V19.8645H13.4444C13.3084 19.8645 13.1872 19.8475 13.1872 19.6107V18.9569H13.203ZM14.5978 19.9529C14.4981 19.9529 14.403 19.9415 14.3044 19.9415C14.2058 19.9415 14.1174 19.9529 14.0132 19.9483C13.7846 19.6416 13.5775 19.3194 13.3934 18.9841H13.2166V19.6129C13.2166 19.8396 13.3095 19.8396 13.4432 19.8396H13.5112V19.9529H13.4976C13.3265 19.9529 13.152 19.9415 12.9832 19.9415C12.8404 19.9415 12.6988 19.9529 12.5492 19.9529H12.5356V19.8396H12.6025C12.7101 19.8396 12.8019 19.792 12.8019 19.6911V18.1683C12.8019 17.9553 12.6954 17.9564 12.6025 17.9541H12.5356V17.8408H12.5492C12.6456 17.8408 12.8302 17.8533 13.0127 17.8533C13.1951 17.8533 13.3356 17.8408 13.4954 17.8408C13.8727 17.8408 14.2194 17.9462 14.2205 18.3813C14.2205 18.651 14.0415 18.8198 13.8115 18.9138L14.3134 19.6673C14.3408 19.7196 14.3821 19.7632 14.4326 19.7936C14.4832 19.824 14.5411 19.8399 14.6001 19.8396H14.6103V19.9529H14.5978Z" fill="#231F20"/>
<path d="M16.6309 19.3506V19.345V18.2232C16.6361 18.1869 16.6333 18.1498 16.6224 18.1147C16.6116 18.0797 16.5931 18.0474 16.5682 18.0204C16.5434 17.9934 16.5128 17.9722 16.4788 17.9585C16.4447 17.9448 16.408 17.9388 16.3714 17.9411H16.3057V17.8516C16.4462 17.8516 16.5833 17.8629 16.7249 17.8629C16.8484 17.8629 16.9696 17.8516 17.0932 17.8516V17.9411H17.0478C16.9221 17.9411 16.7816 17.9649 16.7816 18.3218V19.6815C16.7799 19.7826 16.786 19.8838 16.7997 19.984H16.6864L15.1443 18.2651V19.5002C15.1443 19.7608 15.1953 19.8503 15.4253 19.8503H15.4763V19.9398C15.3482 19.9398 15.219 19.9285 15.091 19.9285C14.963 19.9285 14.8179 19.9398 14.6831 19.9398V19.8503H14.725C14.9312 19.8503 14.9947 19.7087 14.9947 19.4707V18.2107C14.9949 18.1751 14.9879 18.1398 14.9743 18.1068C14.9606 18.0739 14.9406 18.044 14.9153 18.0189C14.8899 17.9938 14.8599 17.974 14.8268 17.9606C14.7938 17.9473 14.7584 17.9406 14.7228 17.9411H14.6831V17.8516C14.7964 17.8516 14.9097 17.8629 15.023 17.8629C15.1125 17.8629 15.1998 17.8516 15.2893 17.8516L16.6309 19.3506Z" fill="#231F20"/>
<path d="M16.6306 19.3501L16.6397 19.3421L16.6306 19.3501ZM16.6907 19.9721H16.7881C16.7764 19.8763 16.7711 19.7798 16.7723 19.6832V18.3235C16.7723 17.9643 16.9241 17.9303 17.0522 17.9292H17.0839V17.8657C16.9706 17.8657 16.8482 17.8782 16.7292 17.8782C16.5921 17.8782 16.4584 17.8669 16.3225 17.8657V17.9292H16.3757C16.414 17.9274 16.4523 17.934 16.4878 17.9486C16.5232 17.9631 16.5551 17.9853 16.5811 18.0135C16.6072 18.0416 16.6267 18.0752 16.6384 18.1117C16.6501 18.1482 16.6536 18.1869 16.6488 18.2249V19.358L16.6431 19.3637L16.634 19.3739L15.3016 17.868C15.2132 17.868 15.1259 17.8805 15.0353 17.8805C14.922 17.8805 14.8087 17.8691 14.7033 17.868V17.9315H14.7305C14.7678 17.9312 14.8048 17.9383 14.8394 17.9524C14.874 17.9665 14.9054 17.9873 14.9319 18.0137C14.9583 18.04 14.9793 18.0714 14.9935 18.1059C15.0078 18.1404 15.015 18.1774 15.0149 18.2147V19.4747C15.0149 19.7149 14.9469 19.8679 14.7328 19.869H14.7033V19.9336C14.8336 19.9336 14.9662 19.9211 15.0976 19.9211C15.229 19.9211 15.348 19.9325 15.4715 19.9336V19.8702H15.433C15.1984 19.8702 15.1395 19.767 15.1384 19.5053V18.234L16.6907 19.9721ZM16.804 19.9982H16.6805L15.1611 18.3054V19.4996C15.1611 19.7614 15.2041 19.8396 15.4296 19.8396H15.493V19.9529H15.4806C15.3514 19.9529 15.2222 19.9404 15.0942 19.9404C14.9662 19.9404 14.8223 19.9529 14.6874 19.9529H14.6738V19.8396H14.7294C14.9265 19.8396 14.9832 19.7115 14.9854 19.4724V18.2102C14.9856 18.1763 14.979 18.1428 14.966 18.1115C14.9531 18.0802 14.934 18.0518 14.91 18.028C14.8859 18.0041 14.8574 17.9853 14.826 17.9727C14.7946 17.96 14.7609 17.9537 14.7271 17.9541H14.6738V17.8408H14.6874C14.8007 17.8408 14.914 17.8533 15.0273 17.8533C15.1157 17.8533 15.2018 17.8408 15.3027 17.8454L16.6182 19.3263V18.2261C16.6182 17.9881 16.4584 17.9587 16.3712 17.9575H16.2919V17.8442H16.3055C16.4471 17.8442 16.5842 17.8567 16.7247 17.8567C16.8471 17.8567 16.9694 17.8442 17.0929 17.8442H17.1054V17.9575H17.0476C16.9241 17.9575 16.7972 17.9711 16.7938 18.3246V19.6843C16.7921 19.7847 16.7982 19.8851 16.8119 19.9846V19.9993L16.804 19.9982Z" fill="#231F20"/>
<path d="M18.0167 18.1879H18.0099L17.7323 19.0354H18.2909L18.0167 18.1879ZM17.5793 19.5136C17.5492 19.5889 17.5268 19.6671 17.5125 19.747C17.5125 19.8377 17.6394 19.8524 17.7391 19.8524H17.7719V19.9419C17.6518 19.9351 17.5295 19.9306 17.4094 19.9306C17.2892 19.9306 17.1941 19.9306 17.0864 19.9419V19.8524H17.1046C17.1631 19.8523 17.2199 19.8332 17.2667 19.7981C17.3135 19.763 17.3476 19.7137 17.364 19.6575L17.8433 18.2831C17.8911 18.1629 17.929 18.039 17.9566 17.9126C18.0513 17.8785 18.1424 17.8353 18.2286 17.7834C18.2368 17.7818 18.2453 17.7818 18.2535 17.7834C18.2574 17.7826 18.2615 17.7831 18.2651 17.7847C18.2688 17.7863 18.2719 17.789 18.2739 17.7925C18.283 17.8163 18.292 17.8435 18.3011 17.8672L18.8495 19.4275C18.8857 19.5317 18.9209 19.6428 18.9628 19.7323C18.9782 19.7712 19.0059 19.8041 19.0417 19.8258C19.0775 19.8474 19.1194 19.8568 19.1611 19.8524H19.1792V19.9419C19.0444 19.9351 18.9095 19.9306 18.7668 19.9306C18.624 19.9306 18.4699 19.9306 18.3135 19.9419V19.8524H18.3464C18.4144 19.8524 18.5322 19.8399 18.5322 19.7651C18.5204 19.6913 18.5003 19.6191 18.4722 19.5499L18.3589 19.202H17.679L17.5793 19.5136Z" fill="#231F20"/>
<path d="M18.0028 18.1908H18.0096H18.0028ZM17.749 19.0214H18.2736L18.013 18.2192L17.749 19.0214ZM17.7162 19.0475L18.0017 18.1739H18.0187V18.1874V18.1739H18.0278L18.3122 19.0475H17.7162ZM18.328 19.9278C18.4753 19.9278 18.6204 19.9165 18.7643 19.9165C18.9082 19.9165 19.0328 19.9222 19.1631 19.9278V19.8644C19.119 19.8689 19.0746 19.8588 19.0367 19.8357C18.9988 19.8126 18.9696 19.7777 18.9535 19.7364C18.915 19.6468 18.8776 19.5358 18.8402 19.4304L18.2827 17.8645L18.2566 17.7931H18.251C18.2453 17.7924 18.2396 17.7924 18.234 17.7931C18.1503 17.8455 18.06 17.8863 17.9654 17.9144C17.9374 18.0418 17.8995 18.1668 17.8521 18.2883L17.3762 19.6616C17.3589 19.7202 17.323 19.7716 17.274 19.8082C17.225 19.8448 17.1655 19.8645 17.1043 19.8644V19.8644V19.9278C17.2074 19.9278 17.3105 19.9165 17.4148 19.9165C17.519 19.9165 17.6493 19.9222 17.7638 19.9278V19.8644H17.7445C17.6459 19.8644 17.5099 19.8531 17.5065 19.7511C17.5204 19.67 17.5428 19.5906 17.5734 19.5143H17.5859H17.5734L17.672 19.1936H18.3699L18.4889 19.5494C18.5186 19.6198 18.5392 19.6936 18.5501 19.7692C18.5501 19.861 18.4198 19.8678 18.3518 19.8689H18.3326L18.328 19.9278ZM19.1756 19.9539C19.0419 19.9482 18.9059 19.9414 18.7643 19.9414C18.6226 19.9414 18.4674 19.9482 18.311 19.9539H18.2963V19.8406H18.3428C18.4119 19.8406 18.515 19.8247 18.515 19.767C18.5036 19.6943 18.4838 19.6232 18.4561 19.5551L18.3428 19.2151H17.6833L17.5904 19.5177C17.561 19.5909 17.5386 19.6668 17.5235 19.7443C17.5235 19.8179 17.6368 19.8361 17.7366 19.8361H17.7819V19.9494H17.7683C17.6493 19.9437 17.5269 19.9369 17.4068 19.9369C17.2867 19.9369 17.1916 19.9437 17.085 19.9494H17.0703V19.8361H17.102C17.1577 19.8359 17.2119 19.8177 17.2564 19.7842C17.3009 19.7507 17.3334 19.7037 17.3491 19.6502L17.8295 18.2781C17.8761 18.1542 17.9158 18.0279 17.9484 17.8996C18.0429 17.8651 18.134 17.8219 18.2204 17.7705C18.2294 17.7668 18.239 17.7645 18.2487 17.7637C18.2553 17.7635 18.2619 17.765 18.2678 17.768C18.2737 17.7709 18.2788 17.7753 18.2827 17.7807C18.2906 17.8056 18.3008 17.8328 18.3099 17.8566L18.8606 19.4225C18.8957 19.5267 18.932 19.6378 18.9739 19.7262C18.9878 19.7631 19.0136 19.7943 19.0473 19.8148C19.081 19.8353 19.1205 19.844 19.1597 19.8395H19.1892V19.9528L19.1756 19.9539Z" fill="#231F20"/>
<path d="M19.3028 18.0013C19.0762 18.0013 19.0694 18.0557 19.0241 18.2732H18.9346C18.9459 18.1894 18.9618 18.1055 18.9708 18.0194C18.9822 17.9349 18.9879 17.8497 18.9878 17.7645H19.0603C19.0841 17.8551 19.1589 17.8517 19.2394 17.8517H20.7849C20.8653 17.8517 20.9401 17.8517 20.9458 17.7588L21.0172 17.7713C21.0058 17.8517 20.9945 17.9321 20.9854 18.0137C20.9764 18.0953 20.9786 18.1746 20.9786 18.2551L20.8891 18.2891C20.8891 18.1758 20.8687 18.0013 20.6682 18.0013H20.1764V19.5932C20.1764 19.8198 20.2818 19.8516 20.4257 19.8516H20.4823V19.9411C20.369 19.9411 20.156 19.9298 19.994 19.9298C19.832 19.9298 19.6054 19.9411 19.4886 19.9411V19.8516H19.5453C19.7107 19.8516 19.7934 19.8368 19.7934 19.6V18.0013H19.3028Z" fill="#231F20"/>
<path d="M20.4854 19.9541C20.3721 19.9541 20.1579 19.9428 19.997 19.9428C19.818 19.9428 19.6084 19.9541 19.4917 19.9541H19.4781V19.8408H19.5483C19.7138 19.8408 19.7749 19.8352 19.784 19.6029V18.0166H19.3025V17.9905H19.8067V19.6029C19.8067 19.8431 19.7092 19.8669 19.5449 19.8669H19.5007V19.9315C19.6197 19.9315 19.8203 19.919 19.9936 19.919C20.167 19.919 20.3505 19.9303 20.4684 19.9315V19.8669H20.4242C20.2803 19.8669 20.1636 19.8318 20.1636 19.5961V17.9883H20.6678C20.8684 17.9883 20.8944 18.1594 20.9001 18.2715L20.9658 18.2477C20.9658 18.1696 20.9658 18.0914 20.9715 18.0121C20.9771 17.9327 20.9919 17.8591 21.0021 17.7854L20.9567 17.7775C20.9431 17.8648 20.8593 17.8704 20.7845 17.8682H19.2277C19.1574 17.8682 19.0804 17.8682 19.0532 17.7809H19.0045C19.0042 17.8624 18.9982 17.9438 18.9863 18.0245C18.9784 18.1072 18.9637 18.1865 18.9523 18.2647H19.0169C19.0554 18.0562 19.0815 17.9883 19.3058 17.9917V18.0177C19.0792 18.0177 19.0894 18.0596 19.0396 18.2806V18.2908H18.9263V18.2761C18.9387 18.1922 18.9535 18.1072 18.9625 18.0211C18.9748 17.9375 18.9809 17.853 18.9807 17.7684V17.756H19.0758V17.765C19.0962 17.841 19.1506 17.841 19.2277 17.8421H20.7879C20.8706 17.8421 20.9307 17.8421 20.9363 17.7616V17.748H20.9511L21.0361 17.7616V17.7741C21.0236 17.8546 21.0123 17.935 21.0032 18.0155C20.9941 18.0959 20.9975 18.1763 20.9975 18.2568V18.2659H20.9885L20.882 18.3055V18.2874C20.874 18.1741 20.8627 18.0121 20.6735 18.0121H20.1953V19.5916C20.1953 19.8182 20.2882 19.834 20.4299 19.8363H20.5001V19.9496L20.4854 19.9541Z" fill="#231F20"/>
<path d="M21.1318 19.8514H21.1738C21.2814 19.8514 21.3947 19.8367 21.3947 19.6803V18.1122C21.3947 17.9558 21.2814 17.9411 21.1738 17.9411H21.1318V17.8516C21.2451 17.8516 21.4276 17.8629 21.5749 17.8629C21.7222 17.8629 21.9046 17.8516 22.0451 17.8516V17.9411H22.0032C21.8955 17.9411 21.7766 17.9558 21.7766 18.1122V19.6803C21.7766 19.8367 21.8899 19.8514 22.0032 19.8514H22.0451V19.941C21.9012 19.941 21.721 19.9296 21.5726 19.9296C21.4242 19.9296 21.2485 19.941 21.1318 19.941V19.8514Z" fill="#231F20"/>
<path d="M22.0308 19.9268V19.8634H22.0024C21.8948 19.8634 21.7679 19.8452 21.7679 19.6798V18.1116C21.7679 17.9462 21.8948 17.9281 22.0024 17.9269H22.0308V17.8635C21.8925 17.8635 21.7192 17.8759 21.5775 17.8759C21.4359 17.8759 21.2637 17.8646 21.1481 17.8635V17.9269H21.1764C21.2829 17.9269 21.411 17.9462 21.411 18.1116V19.6798C21.411 19.8452 21.2829 19.8634 21.1764 19.8634H21.1481V19.9268C21.2614 19.9268 21.4325 19.9155 21.5753 19.9155C21.718 19.9155 21.8925 19.9268 22.0342 19.9268H22.0308ZM22.0478 19.9529C21.9027 19.9529 21.7237 19.9404 21.5753 19.9404C21.4268 19.9404 21.2512 19.9529 21.1345 19.9529H21.1152V19.8396H21.1696C21.2773 19.8396 21.377 19.8282 21.3781 19.6821V18.1116C21.3781 17.9655 21.2773 17.9553 21.1696 17.9541H21.1152V17.8408H21.1277C21.241 17.8408 21.4246 17.8533 21.5707 17.8533C21.7169 17.8533 21.8993 17.8408 22.041 17.8408H22.0534V17.9541H21.999C21.8857 17.9541 21.7917 17.9655 21.7905 18.1116V19.6798C21.7905 19.826 21.8891 19.8362 21.999 19.8373H22.0534V19.9506L22.0478 19.9529Z" fill="#231F20"/>
<path d="M23.2835 19.8542C23.8647 19.8542 23.9633 19.3421 23.9633 18.9058C23.9633 18.4696 23.7276 17.9382 23.2302 17.9382C22.7067 17.9382 22.5504 18.4061 22.5504 18.8061C22.5504 19.3421 22.7962 19.8542 23.2801 19.8542H23.2835ZM23.2347 17.8067C23.8738 17.8067 24.3825 18.2022 24.3825 18.8401C24.3893 18.9913 24.3648 19.1424 24.3104 19.2836C24.2561 19.4249 24.1731 19.5535 24.0667 19.6612C23.9603 19.7688 23.8328 19.8533 23.6921 19.9094C23.5515 19.9654 23.4008 19.9918 23.2495 19.9868C22.615 19.9868 22.13 19.5551 22.13 18.9115C22.1279 18.7659 22.1549 18.6214 22.2096 18.4865C22.2643 18.3515 22.3455 18.229 22.4484 18.126C22.5513 18.023 22.6738 17.9416 22.8087 17.8868C22.9435 17.832 23.088 17.8048 23.2336 17.8067" fill="#231F20"/>
<path d="M22.5399 18.805C22.5399 18.4028 22.6986 17.9246 23.2322 17.9246C23.741 17.9246 23.9778 18.4651 23.9789 18.9048C23.9801 19.3444 23.8758 19.8656 23.2832 19.8656V19.8395C23.8498 19.8395 23.9517 19.3399 23.9529 18.9036C23.954 18.4674 23.7195 17.9507 23.2322 17.9496C22.719 17.9496 22.5671 18.4028 22.566 18.8039C22.566 19.3376 22.8096 19.8384 23.2832 19.8395V19.8645C22.7869 19.8645 22.5411 19.3433 22.5399 18.8039V18.805ZM22.1207 18.9093C22.1189 18.7621 22.1465 18.616 22.202 18.4796C22.2575 18.3432 22.3397 18.2193 22.4438 18.1152C22.548 18.0111 22.6718 17.9289 22.8082 17.8734C22.9446 17.8179 23.0907 17.7903 23.2379 17.7921V17.8181C23.094 17.816 22.9512 17.8428 22.8178 17.8968C22.6845 17.9509 22.5633 18.0312 22.4616 18.133C22.3598 18.2347 22.2795 18.3559 22.2255 18.4892C22.1714 18.6226 22.1446 18.7654 22.1468 18.9093C22.1468 19.5461 22.6249 19.971 23.2538 19.971C23.4032 19.9758 23.552 19.9497 23.6909 19.8943C23.8297 19.8389 23.9556 19.7553 24.0606 19.6489C24.1657 19.5425 24.2475 19.4155 24.3011 19.276C24.3547 19.1364 24.3789 18.9873 24.3721 18.8379C24.3721 18.2079 23.8713 17.8181 23.239 17.8181V17.7921C23.8826 17.7921 24.3982 18.1921 24.3993 18.8379C24.4057 18.9906 24.3807 19.143 24.3256 19.2855C24.2706 19.4281 24.1868 19.5578 24.0794 19.6666C23.972 19.7753 23.8434 19.8608 23.7016 19.9177C23.5597 19.9745 23.4077 20.0015 23.2549 19.997C22.6147 19.997 22.1218 19.5597 22.1218 18.9093" fill="#231F20"/>
<path d="M26.403 19.3506V19.345V18.2232C26.4083 18.1868 26.4054 18.1496 26.3945 18.1145C26.3836 18.0793 26.365 18.047 26.34 18.02C26.315 17.9929 26.2843 17.9718 26.2501 17.9581C26.2159 17.9445 26.1791 17.9387 26.1424 17.9411H26.0767V17.8516C26.2172 17.8516 26.3554 17.8629 26.4959 17.8629C26.6364 17.8629 26.7418 17.8516 26.8642 17.8516V17.9411H26.8188C26.6942 17.9411 26.5526 17.9649 26.5526 18.3218V19.6815C26.5509 19.7826 26.557 19.8838 26.5707 19.984H26.4574L24.9153 18.2651V19.5002C24.9153 19.7608 24.9663 19.8503 25.1963 19.8503H25.2473V19.9398C25.1192 19.9398 24.99 19.9285 24.862 19.9285C24.734 19.9285 24.5889 19.9398 24.4541 19.9398V19.8503H24.496C24.7034 19.8503 24.7657 19.7087 24.7657 19.4707V18.2107C24.7659 18.175 24.7589 18.1396 24.7452 18.1066C24.7315 18.0736 24.7113 18.0436 24.6859 18.0185C24.6604 17.9934 24.6302 17.9736 24.597 17.9603C24.5639 17.947 24.5284 17.9405 24.4926 17.9411H24.4541V17.8516C24.5674 17.8516 24.6807 17.8629 24.794 17.8629C24.8835 17.8629 24.9697 17.8516 25.0603 17.8516L26.403 19.3506Z" fill="#231F20"/>
<path d="M26.4025 19.3501L26.4115 19.3421L26.4025 19.3501ZM26.4625 19.9721H26.56C26.5486 19.8763 26.5437 19.7797 26.5452 19.6832V18.3235C26.5452 17.9632 26.6959 17.9303 26.824 17.9292H26.8568V17.8657C26.7379 17.8657 26.62 17.8782 26.501 17.8782C26.3639 17.8782 26.2302 17.8669 26.0954 17.8657V17.9292H26.1475C26.1858 17.9274 26.2241 17.934 26.2596 17.9486C26.2951 17.9631 26.3269 17.9853 26.353 18.0135C26.379 18.0416 26.3985 18.0752 26.4102 18.1117C26.4219 18.1482 26.4254 18.1869 26.4206 18.2249V19.358L26.4149 19.3637L26.4059 19.3739L25.07 17.8635C24.9816 17.8635 24.8943 17.8759 24.8037 17.8759C24.6904 17.8759 24.5771 17.8646 24.4717 17.8635V17.9269H24.4978C24.5352 17.9266 24.5722 17.9337 24.6069 17.9478C24.6415 17.9619 24.673 17.9828 24.6995 18.0091C24.7261 18.0354 24.7471 18.0668 24.7615 18.1013C24.7759 18.1358 24.7833 18.1728 24.7833 18.2102V19.4713C24.7833 19.7104 24.7165 19.8634 24.5012 19.8645H24.4717V19.9291C24.602 19.9291 24.7357 19.9166 24.8671 19.9166C24.9986 19.9166 25.1153 19.9279 25.2399 19.9291V19.8656H25.2014C24.9657 19.8656 24.9068 19.7625 24.9068 19.5019V18.2329L26.4625 19.9721ZM26.5758 19.9982H26.4523L24.9329 18.3054V19.4996C24.9329 19.7602 24.9759 19.8328 25.2014 19.8396H25.266V19.9529H25.2524C25.1232 19.9529 24.9952 19.9415 24.8671 19.9415C24.7391 19.9415 24.5952 19.9529 24.4592 19.9529H24.4468V19.8396H24.5012C24.6983 19.8396 24.755 19.7115 24.7584 19.4736V18.2102C24.7584 18.1762 24.7516 18.1425 24.7385 18.1111C24.7253 18.0798 24.706 18.0513 24.6818 18.0275C24.6575 18.0037 24.6287 17.9849 24.5972 17.9723C24.5656 17.9597 24.5318 17.9535 24.4978 17.9541H24.4468V17.8408H24.4592C24.5726 17.8408 24.6859 17.8533 24.7992 17.8533C24.8875 17.8533 24.9737 17.8408 25.0756 17.8454L26.3911 19.3263V18.2261C26.3911 17.9881 26.2302 17.9587 26.143 17.9575H26.0637V17.8442H26.0773C26.2189 17.8442 26.356 17.8567 26.4965 17.8567C26.6189 17.8567 26.7401 17.8442 26.8648 17.8442H26.8772V17.9575H26.8194C26.6959 17.9575 26.569 17.9711 26.5668 18.3246V19.6843C26.5647 19.7847 26.5704 19.8851 26.5838 19.9846V19.9993L26.5758 19.9982Z" fill="#231F20"/>
<path d="M27.788 18.188H27.7823L27.5025 19.0355H28.0633L27.788 18.188ZM27.3472 19.5137C27.3179 19.5892 27.2958 19.6674 27.2815 19.7471C27.2815 19.8378 27.4073 19.8525 27.5081 19.8525H27.541V19.942C27.4209 19.9352 27.2985 19.9307 27.1784 19.9307C27.0583 19.9307 26.9631 19.9307 26.8555 19.942V19.8525H26.8725C26.9312 19.8526 26.9883 19.8337 27.0353 19.7985C27.0823 19.7634 27.1166 19.7139 27.1331 19.6576L27.6135 18.2832C27.6613 18.163 27.6992 18.039 27.7268 17.9127C27.8218 17.8786 27.9133 17.8353 27.9999 17.7835C28.0077 17.7818 28.0158 17.7818 28.0237 17.7835C28.0327 17.7835 28.0384 17.7835 28.0441 17.7926L28.0713 17.8673L28.6219 19.4332C28.6571 19.5375 28.6933 19.6485 28.7352 19.738C28.7514 19.776 28.7795 19.8078 28.8153 19.8284C28.851 19.849 28.8925 19.8575 28.9335 19.8525H28.9517V19.942C28.8168 19.9352 28.682 19.9307 28.5381 19.9307C28.3942 19.9307 28.2424 19.9307 28.0849 19.942V19.8525H28.1177C28.1868 19.8525 28.3035 19.84 28.3035 19.7652C28.2923 19.6913 28.2721 19.619 28.2435 19.55L28.1302 19.2021H27.4503L27.3472 19.5137Z" fill="#231F20"/>
<path d="M27.7758 18.1912H27.7815H27.7758ZM27.5209 19.0217H28.0455L27.7849 18.2195L27.5209 19.0217ZM27.4846 19.0478L27.7724 18.1742H27.7883V18.1878V18.1742H27.8007L28.084 19.0478H27.4846ZM28.0965 19.9282C28.2449 19.9282 28.3911 19.9168 28.5327 19.9168C28.6743 19.9168 28.8024 19.9225 28.9338 19.9282V19.8647C28.8897 19.8692 28.8453 19.8592 28.8074 19.836C28.7696 19.8129 28.7403 19.778 28.7242 19.7367C28.6845 19.6472 28.6494 19.5361 28.6109 19.4307L28.0602 17.8648C28.0512 17.841 28.0421 17.815 28.0353 17.7935H28.0274C28.0217 17.7924 28.016 17.7924 28.0104 17.7935C27.9266 17.8441 27.8367 17.8841 27.743 17.9124C27.7149 18.0398 27.6771 18.1648 27.6297 18.2863L27.1504 19.6608C27.1328 19.7195 27.0967 19.7709 27.0475 19.8075C26.9983 19.844 26.9386 19.8637 26.8773 19.8636V19.8636V19.927C26.9793 19.927 27.0824 19.9157 27.1866 19.9157C27.2909 19.9157 27.4212 19.9214 27.5356 19.927V19.8636H27.5163C27.4189 19.8636 27.2818 19.8522 27.2784 19.7503C27.2928 19.6693 27.3152 19.59 27.3453 19.5135H27.3577H27.3453L27.4438 19.1928H28.1407L28.2608 19.5486C28.2897 19.6191 28.3099 19.6929 28.3208 19.7684C28.3208 19.8602 28.1905 19.867 28.1225 19.8681H28.1021L28.0965 19.9282ZM28.9452 19.9542C28.8103 19.9542 28.6755 19.9429 28.5327 19.9429C28.3899 19.9429 28.237 19.9497 28.0852 19.9542H28.0716V19.8409H28.1169C28.186 19.8409 28.2891 19.8251 28.2902 19.7673C28.2777 19.6947 28.2576 19.6237 28.2302 19.5554L28.1169 19.2155H27.4608L27.369 19.518C27.34 19.5913 27.318 19.6672 27.3033 19.7446C27.3033 19.8183 27.4166 19.8364 27.5152 19.8364H27.5605V19.9497H27.5469C27.4336 19.9497 27.3045 19.9384 27.1855 19.9384C27.0665 19.9384 26.9713 19.9452 26.8626 19.9497H26.8501V19.8364H26.8796C26.9356 19.8365 26.9902 19.8184 27.0351 19.7849C27.08 19.7514 27.1129 19.7043 27.1288 19.6506L27.6081 18.2761C27.6523 18.152 27.6901 18.0257 27.7214 17.8977C27.8162 17.863 27.9076 17.8197 27.9945 17.7685C28.0036 17.7651 28.0131 17.7632 28.0228 17.7629C28.0294 17.7622 28.0359 17.7635 28.0418 17.7665C28.0476 17.7695 28.0524 17.7742 28.0557 17.7799C28.0648 17.8036 28.0727 17.8308 28.0829 17.8546L28.6336 19.4205C28.6698 19.5248 28.7049 19.6358 28.7469 19.7253C28.7608 19.7623 28.7866 19.7935 28.8203 19.814C28.8539 19.8345 28.8935 19.8432 28.9327 19.8386H28.9633V19.952L28.9452 19.9542Z" fill="#231F20"/>
<path d="M29.7007 19.6475C29.7007 19.7676 29.7834 19.8027 29.8797 19.8152C30.0112 19.827 30.1436 19.827 30.2751 19.8152C30.3312 19.8084 30.3854 19.7905 30.4346 19.7627C30.4838 19.7349 30.527 19.6977 30.5618 19.6531C30.605 19.5873 30.6364 19.5145 30.6547 19.4379H30.7465C30.7136 19.6078 30.6717 19.7778 30.6332 19.9466C30.3703 19.9466 30.1063 19.9353 29.84 19.9353C29.5738 19.9353 29.3131 19.9466 29.0469 19.9466V19.8571H29.0888C29.2021 19.8571 29.3154 19.8424 29.3154 19.6565V18.1122C29.3154 17.9558 29.2021 17.9411 29.0888 17.9411H29.0469V17.8516C29.2055 17.8516 29.3619 17.8629 29.5205 17.8629C29.6791 17.8629 29.8219 17.8516 29.9737 17.8516V17.9411H29.8989C29.7856 17.9411 29.6961 17.9411 29.6961 18.1031L29.7007 19.6475Z" fill="#231F20"/>
<path d="M30.6202 19.9268C30.6553 19.7648 30.695 19.6062 30.7267 19.4441H30.6655C30.6466 19.5191 30.6152 19.5904 30.5726 19.6549C30.4999 19.7474 30.3936 19.8073 30.2768 19.8214C30.1975 19.8294 30.1205 19.8339 30.0502 19.8339C29.98 19.8339 29.9369 19.8339 29.8814 19.8271C29.784 19.8169 29.6899 19.775 29.6899 19.6469V18.1026C29.6899 17.936 29.7953 17.9269 29.9075 17.9269H29.9687V17.8635C29.8214 17.8635 29.6763 17.8759 29.5268 17.8759C29.3772 17.8759 29.2208 17.8646 29.0679 17.8635V17.9269H29.0962C29.2027 17.9269 29.333 17.9462 29.333 18.1116V19.6503C29.333 19.8441 29.2038 19.8634 29.0962 19.8634H29.0679V19.9268C29.3262 19.9268 29.5845 19.9155 29.8451 19.9155C30.1058 19.9155 30.3652 19.9268 30.6236 19.9268H30.6202ZM30.6349 19.9529C30.3709 19.9529 30.1069 19.9415 29.8417 19.9415C29.5766 19.9415 29.3149 19.9529 29.0486 19.9529H29.0361V19.8396H29.0905C29.2038 19.8396 29.3013 19.8294 29.3024 19.6526V18.1116C29.3024 17.9655 29.1993 17.9553 29.0905 17.9541H29.0361V17.8408H29.0475C29.2061 17.8408 29.3625 17.8533 29.52 17.8533C29.6775 17.8533 29.8214 17.8408 29.9732 17.8408H29.9856V17.9541H29.8984C29.7851 17.9541 29.7103 17.9541 29.708 18.1026V19.6469C29.708 19.7602 29.7817 19.7886 29.8757 19.8022C29.9279 19.8022 29.9834 19.8078 30.0412 19.8078C30.1169 19.8079 30.1925 19.8042 30.2678 19.7965C30.3777 19.7832 30.4779 19.727 30.5465 19.6401C30.5887 19.5753 30.6194 19.5036 30.6372 19.4283V19.4181H30.7505V19.4339C30.7165 19.605 30.6757 19.7738 30.6372 19.9427V19.9529H30.6349Z" fill="#231F20"/>
<path d="M30.6548 18.0831H30.6922C30.733 18.0831 30.7512 18.0525 30.7512 18.0027C30.7512 17.9528 30.7228 17.9347 30.69 17.9347H30.6548V18.0831ZM30.5483 18.2485V18.2338C30.5869 18.2281 30.5948 18.2338 30.5948 18.2055V17.9721C30.5948 17.9392 30.5948 17.9279 30.5495 17.9302V17.9143H30.7115C30.767 17.9143 30.818 17.9415 30.818 17.9981C30.8177 18.02 30.8102 18.0412 30.7967 18.0584C30.7832 18.0756 30.7644 18.0878 30.7432 18.0933L30.7953 18.1658C30.8143 18.1942 30.8376 18.2195 30.8645 18.2406V18.2542H30.8033C30.7738 18.2542 30.7478 18.193 30.69 18.1103H30.6548V18.2146C30.6548 18.2349 30.6616 18.2338 30.7013 18.2395V18.2542L30.5483 18.2485ZM30.7047 18.3381C30.7557 18.3394 30.8059 18.3255 30.8489 18.2982C30.8919 18.2708 30.9258 18.2312 30.9462 18.1845C30.9666 18.1378 30.9726 18.086 30.9634 18.0359C30.9542 17.9858 30.9302 17.9395 30.8946 17.903C30.8589 17.8666 30.8132 17.8416 30.7633 17.8313C30.7134 17.821 30.6615 17.8258 30.6143 17.8451C30.5672 17.8645 30.5269 17.8975 30.4985 17.9399C30.4702 17.9823 30.4552 18.0321 30.4554 18.0831C30.4551 18.1498 30.4811 18.214 30.5277 18.2617C30.5744 18.3094 30.638 18.3369 30.7047 18.3381V18.3381ZM30.7047 17.7715C30.7669 17.7715 30.8278 17.79 30.8796 17.8245C30.9314 17.8591 30.9717 17.9082 30.9956 17.9657C31.0195 18.0232 31.0258 18.0865 31.0137 18.1476C31.0017 18.2086 30.9718 18.2648 30.9278 18.3088C30.8839 18.3529 30.8279 18.383 30.7668 18.3953C30.7058 18.4076 30.6425 18.4015 30.5849 18.3779C30.5274 18.3542 30.4781 18.314 30.4433 18.2623C30.4086 18.2107 30.3899 18.1499 30.3897 18.0876C30.3889 18.046 30.3966 18.0047 30.4121 17.966C30.4276 17.9274 30.4508 17.8923 30.4802 17.8628C30.5096 17.8333 30.5446 17.81 30.5832 17.7944C30.6217 17.7787 30.6631 17.7709 30.7047 17.7715" fill="#231F20"/>
<path d="M12.0093 7.28406C12.0095 6.28148 12.307 5.30148 12.8642 4.46798C13.4213 3.63447 14.2131 2.98489 15.1395 2.60138C16.0658 2.21787 17.085 2.11764 18.0683 2.31337C19.0516 2.5091 19.9548 2.992 20.6636 3.70101C21.3725 4.41002 21.8552 5.31329 22.0507 6.29663C22.2462 7.27996 22.1457 8.29918 21.762 9.22542C21.3783 10.1517 20.7285 10.9433 19.8949 11.5003C19.0613 12.0573 18.0812 12.3546 17.0786 12.3546C16.4128 12.3546 15.7535 12.2234 15.1384 11.9686C14.5233 11.7137 13.9644 11.3402 13.4937 10.8694C13.0229 10.3985 12.6495 9.83955 12.3948 9.22437C12.1401 8.6092 12.0091 7.94987 12.0093 7.28406V7.28406Z" fill="white"/>
<path d="M17.085 12.4437C14.1798 12.4573 11.7891 10.1039 11.7891 7.23837C11.7891 4.10769 14.1798 1.94125 17.085 1.94238H18.4447C21.3159 1.94238 23.9356 4.10655 23.9356 7.23837C23.9356 10.1028 21.3159 12.4437 18.4447 12.4437H17.085ZM17.0975 2.37635C16.1468 2.37702 15.2176 2.65955 14.4275 3.18823C13.6373 3.71691 13.0216 4.468 12.6583 5.34653C12.2949 6.22507 12.2002 7.19162 12.3861 8.12399C12.572 9.05635 13.0301 9.91267 13.7026 10.5847C14.3751 11.2567 15.2317 11.7143 16.1642 11.8995C17.0967 12.0847 18.0632 11.9893 18.9415 11.6253C19.8198 11.2614 20.5704 10.6451 21.0985 9.8546C21.6267 9.06407 21.9085 8.13469 21.9085 7.18398C21.9085 6.55235 21.7841 5.92691 21.5423 5.34339C21.3004 4.75988 20.946 4.22974 20.4992 3.78327C20.0524 3.33679 19.522 2.98274 18.9384 2.74133C18.3547 2.49993 17.7291 2.3759 17.0975 2.37635V2.37635ZM16.0064 10.0269V4.3411C15.4312 4.56157 14.9364 4.95133 14.5874 5.4589C14.2383 5.96648 14.0515 6.56798 14.0515 7.18398C14.0515 7.79997 14.2383 8.40148 14.5874 8.90906C14.9364 9.41663 15.4312 9.80639 16.0064 10.0269V10.0269ZM20.1443 7.18398C20.1436 6.56775 19.9563 5.96618 19.607 5.45851C19.2577 4.95083 18.7628 4.56087 18.1875 4.33997V10.028C18.7627 9.80696 19.2575 9.41696 19.6068 8.90932C19.9561 8.40168 20.1435 7.80018 20.1443 7.18398V7.18398Z" fill="#004A98"/>
</g>
</svg>
