<svg width="36" height="22" viewBox="0 0 36 22" fill="none" xmlns="http://www.w3.org/2000/svg" id="logo">
<mask id="mask0" mask-type="alpha" maskUnits="userSpaceOnUse" x="0" y="0" width="36" height="22">
<rect width="36" height="22" rx="2" fill="#C4C4C4"/>
</mask>
<g mask="url(#mask0)">
<rect x="-4" y="-3" width="43" height="29" fill="#F7F7F7"/>
<path d="M21.1685 5.31055H14.6006V17.0216H21.1685V5.31055Z" fill="#FF5F00"/>
<path d="M15.0162 11.1725C15.0152 10.0447 15.2728 8.93135 15.7695 7.91686C16.2662 6.90238 16.989 6.01331 17.8831 5.31698C16.7758 4.45336 15.446 3.91629 14.0456 3.76715C12.6452 3.61801 11.2307 3.86281 9.9639 4.4736C8.69709 5.08438 7.62902 6.03649 6.88178 7.2211C6.13454 8.40571 5.73828 9.77502 5.73828 11.1725C5.73828 12.57 6.13454 13.9393 6.88178 15.124C7.62902 16.3086 8.69709 17.2607 9.9639 17.8715C11.2307 18.4822 12.6452 18.727 14.0456 18.5779C15.446 18.4288 16.7758 17.8917 17.8831 17.0281C16.989 16.3317 16.2662 15.4427 15.7695 14.4282C15.2728 13.4137 15.0152 12.3004 15.0162 11.1725V11.1725Z" fill="#EB001B"/>
<path d="M30.0293 11.1725C30.0293 12.57 29.6331 13.9393 28.8859 15.1239C28.1387 16.3085 27.0707 17.2606 25.8039 17.8714C24.5371 18.4822 23.1227 18.727 21.7223 18.5779C20.3219 18.4288 18.9921 17.8917 17.8848 17.0281C18.7782 16.331 19.5004 15.4418 19.997 14.4275C20.4936 13.4132 20.7517 12.3002 20.7517 11.1725C20.7517 10.0448 20.4936 8.93187 19.997 7.91755C19.5004 6.90322 18.7782 6.01402 17.8848 5.31698C18.9921 4.45335 20.3219 3.91628 21.7223 3.76714C23.1227 3.61801 24.5371 3.86282 25.8039 4.47361C27.0707 5.0844 28.1387 6.03651 28.8859 7.22112C29.6331 8.40573 30.0293 9.77504 30.0293 11.1725V11.1725Z" fill="#F79E1B"/>
<path d="M29.3094 15.7832V15.5435H29.4068V15.4946H29.1587V15.5435H29.2562V15.7832H29.3094ZM29.7912 15.7832V15.4941H29.7151L29.6276 15.693L29.5401 15.4941H29.464V15.7832H29.5177V15.5652L29.5997 15.7532H29.6554L29.7375 15.5647V15.7832H29.7912Z" fill="#F79E1B"/>
</g>
</svg>
