<svg width="36" height="22" viewBox="0 0 36 22" fill="none" xmlns="http://www.w3.org/2000/svg" id="logo">
<mask id="mask0" mask-type="alpha" maskUnits="userSpaceOnUse" x="0" y="0" width="36" height="22">
<rect width="36" height="22" rx="2" fill="#1A1F71"/>
</mask>
<g mask="url(#mask0)">
<rect x="-3" y="-3" width="43" height="29" fill="#1A1F71"/>
<path d="M35 20.1846C35 20.8871 34.438 21.449 33.7355 21.449H2.26446C1.56198 21.449 1 20.8871 1 20.1846V1.26447C1 0.561986 1.56198 0 2.26446 0H33.7355C34.438 0 35 0.561986 35 1.26447V20.1846V20.1846Z" fill="#1A1F71"/>
<path d="M13.9254 6.22936L10.132 15.2679H7.64995L5.77667 8.05581C5.68301 7.63432 5.54251 7.44699 5.21469 7.25967C4.65271 6.97867 3.71607 6.65085 2.91992 6.51036L2.96675 6.22936H6.94747C7.46262 6.22936 7.93094 6.55719 8.02461 7.166L9.00808 12.4112L11.4433 6.2762H13.9254V6.22936ZM23.6196 12.3175C23.6196 9.92909 20.3414 9.78859 20.3414 8.75829C20.3414 8.43047 20.6692 8.10264 21.3249 8.00898C21.6527 7.96215 22.5893 7.91531 23.6196 8.43047L24.0411 6.51036C23.4792 6.32303 22.7767 6.08887 21.84 6.08887C19.5453 6.08887 17.9062 7.3065 17.9062 9.08611C17.9062 10.3974 19.077 11.0999 19.9668 11.5214C20.8566 11.9429 21.1844 12.2239 21.1844 12.6453C21.1844 13.2542 20.4819 13.5352 19.7794 13.5352C18.6086 13.5352 17.9062 13.2073 17.391 12.9732L16.9695 14.9401C17.5315 15.1743 18.515 15.4084 19.5453 15.4084C21.9805 15.4084 23.5728 14.1908 23.6196 12.3175ZM29.7078 15.2679H31.8621L29.9888 6.22936H27.975C27.5067 6.22936 27.132 6.51036 26.9916 6.88501L23.4792 15.2679H25.9144L26.3827 13.9098H29.38L29.7078 15.2679ZM27.0852 12.0834L28.3028 8.71146L29.0053 12.0834H27.0852ZM17.2505 6.22936L15.3304 15.2679H12.9888L14.9089 6.22936H17.2505Z" fill="white"/>
</g>
</svg>
